<?xml version="1.0" encoding="UTF-8"?>
<svg id="europe" xmlns="http://www.w3.org/2000/svg" version="1.1" viewBox="0 0 819.1 684">
  <defs>
    <style>
      .cls-1 {
        fill: #eee;
        stroke: #0a755b;
        stroke-linecap: round;
        stroke-linejoin: round;
      }
    </style>
  </defs>
  <path id="albania" class="cls-1" d="M537.7,553.9l.5.4,2.1,3,1.5.5,2,1.4,1.5,3.4v2.3l-.4,2.7.3,2.2-.8.8.7,2.1.2,2,1.3,2.3,1.3,1.2,1.4,2.5,1.7-.2,1.4,1.2v1.2l1.2,1.9-.8,2.7-1.8.8-1.3,3.3-.3,2.1-.6.5-2,.3-1.8,1.4,1,2.3-.9.7-.3,1.6-.7.7-2.8-.9-.7-2.6-1.8-2.8-5.1-2.7-1.3-1.2.4-1.6v-1.5l-1.6-2.5.3-2.7.8-2.3-.3-2.8v-2.2l-.6-3,.5-2.2.9-1.4-.2-2.3-1.6-1.2-2-.3v-3.8h1.7l-1.8-2.9,3.4-5.6,1.2.3.8,2.2,3.6-1.3h-.3,0Z"/>
  <path id="andorra" class="cls-1" d="M295.1,554.6l-2.9,1.2-.7-.4v-2.2l.9-.7,2.7.6v1.6h0Z"/>
  <path id="austria" class="cls-1" d="M488.3,457.5l-.4,1.2v.8l1.7,3,2.2,2.9-.6.7-.6,2,.7,2.1-4.1.3-2.6-.9-1.4,1.5,2.5.7.5,1.2-.5,1.5-2.3,1.3.4,1.6-.5.7,1.2,1.7-.3,1.9-2.6.5-2.2,1.8-1.4.8v2l-2.1-.4-1.7.2-2.4,1.2-2.9-.2-2.7.2-2,.7-1,1.4-3.1,1.3-5.2-.7-5.2-.9-2.7-.5-4.2-.3-9.2-1.3-1.2-.5-3.3-3.7v-2.4l-4.9,1.6-3.3-.2-3.6.3-1.5.6-1.3,2.3-1.2.4-2.2-.4-.9-.8-3.1-.5-.2-1.4-.9-.7-2.1,2-2.4-.4-1.6-.8-.4-1-3.5-.8.2-1.2-1.1-2.2,1-3.1-.9-.7,1.8-.5.7-.5,3.7,1.7.9,1.5h1.5v1.4l1.7-.5,1-1.7.2-2.1h2.9c0-.1,2.8.4,2.8.4l1.5,2,4-.5,1.2-.9,4.1-1.6,6.1-.5v-1.5l2.1.3,1.6.8,2.6-.5,1.2.5.2,1.2,1.3.9,1.8.4.3-1.6-.3-2-1.8-.3.5-1.4v-1.4l-2.6-2.9.6-1.4,3.3-1.9,3-.8,1-1,.7-3,2.4.9,1.4-.9.2-2.9,2,1.6.8,1.4,4.1.4,1.5-.7,2.6.4v-1.2l1.5-1.7h1.3l.3-3.4,1.3-.2,1.7.8,1.5-.4,5,1.8h1.6c0-.1,3.1,1.7,3.1,1.7l4,.2,1.3-.9,5.3,1.6.8,1h0l-.2,1.4h0Z"/>
  <path id="belgium" class="cls-1" d="M343.9,421.6h1l1.3.2h1.6c0,.2,2.5,2.3,2.5,2.3l-.4,1.6,1.8.7.4,2.1-2.4,1.4-.6,1.8-1.8-.7-1.4,1.4-1.5,2.6-.2,1.8,2.1,2.5-1.2,1.8-3.6.4-2.9-2.7-3.5-1.6h-1.8c0-.1-.4-2.2-.4-2.2l-.6-.6.8-2.8-2,.6-.5,1.5-1.4.6-2.3.3-2.4-.3-.5-.6.7-1.5-.7-.7.4-1.7-1.7-1.2-3.8-.4-.9.3-.6-2.1-4.4-1.2-.5-2.1-1.7-1.9-3.4,1-3-2.5v-1.3l-.9-2.3,5.3-2.6,4.9-1.8.3,1.4,1.3.7,1.3-.6,4.1,1.2,3.4-1.6.6-1.3,2.2.3-.2-.9,1.5-.7,1.6.8,1.6-1,1.2,1.4,2.6-.8.5,1.7,2.7,1.5,2-.4,1.8,1.4,2.7,1.2-1,3-1.2,1.4.7,1.2h.5Z"/>
  <path id="bulgaria" class="cls-1" d="M647.8,534.5l.2,3.9-.9,1.9-2.1-.6-2.3.5-1,2.1-1.3,1.3v2.7l.4,4.4-1.7.7-3,3.9,3.1,1.9,1.8,2.3,2.5,2.6.5,1.3-1.8-.2-.9.4h-1.9l-1.6.6-3.6-2.6-3.7.3-1.6,1.2-3.6.4-1,2.3-2,.3-.3,1.5-1.7-.5-1.7,1.2.7,1,.9,2.8-.2.8-2.6,1.3-1.9-.3-3.4.4-3.6.9-1.8-1.2-3.9-1.3-.9.6-2.5-1.5-1.3-1.8-1.7.5h-4.4l-.2.8-2,.2-3.1,1.2-2.7-.2-2.5.2-1,1-3.1-.2v-4.4l.5-1.8-.9-1-1.8-3.5-3.6-1.9-3.5-3.4,1-.3,1.2-1.8-1.5-3v-3.5l1.2-.6h1.9l1.2-1.8,1.7-1.8.3-1.5-1.7-1-1.4-1.7-3-1.6-2.5-4.1-.6-2.5.4-2.4,2.2-1,.2-2,.9-.7,4.5,2.6-1.9,2.1.9,1.9,3.9-.6,4.1.3,5.6,1,3.7.4,2.6-.5,9.9,1.8,4.4.2,2.4-.6,1.7-.9,1.3-1.7,3.5-2.2,3.4-1.3,4.6-.9,3-.4,4.7,2.4,3.4.4.9.6,1.8-.5,2.6,2.7,2.3.7,2.7.5h2.1v.3h0Z"/>
  <path id="bosnia_and_herzegovina" data-name="bosnia and herzegovina" class="cls-1" d="M523.3,515.5l1.4.8-.5,2.6-1.8,2.8v2.7l.7.8,2.5,1.3,3.5,3-.3.8h-3.3l-.5.7,3.2,3.9-.2,2.3-2.7-.3-.6,1.1-3.5.5,1.5,2.3-2.4.2-2.1,1.8-.3,1.8-.2,1.6-1.7.2-.5.7.7,3.1.8,1.5v1l-1.1,1-1.5-1-6.5-4-.6-.9h-1.7l-1.2-.5.3-1.7-3.1-2.6-1.6-1.7-.4-2.3-2.5-1.2-5.2-4.3-1.8-2.1-2.9-2.4-2.4-2.5-1.4-4.2-3.6-3.4-2-1.4v-1.5l.2-5.2,1.3-.6,1.9.4,1.8,1.9,1.9,1,2.8-3.4,3.4.3,1.6-1.3,2.8,1.7h2.6c0,.1,2.9.8,2.9.8l1.8-.6,1.7,1.4,2.3-1,1.9.3,1.9-.2,2.7.7,2.3.2,1.2.8,1.4,2.3,2.2.4,2.8-.4h0Z"/>
  <path id="belarus" class="cls-1" d="M610.4,336.6l1.9,1.4,1.3-.4h2c0-.1,3.3,2.2,3.3,2.2l1.7-.9,1.6-.3,3.8,1.3.2,2.4,1.8,1.6,2.2-1.4,2.8-1.2h3.6l2.8.9,2.5,1.9,3.7,1.5.4,2.6-.6,1.9,2.2,2.2.5,1.4-1.4,2.1v2.1l4.3,2.1.5.5-.5,1.9,1.5.6,1.9,2.5,1.6,1.5,5.1,2.2.7.8-.4,2.9,5.6.5,3.4,1.4v1.2l.7,1.2,2.9,1.5.6,1.8-2.7,1-.3.9-3.1,1.9-3.7-.2-2.5-1.6h-3c0,.1-1.5,2.9-1.5,2.9l4.1,3.5.6,1-.2,1.6,1,1.6.5,3.5,1.7,1.5,1.4,1.9h-5.2c0-.1-1.5.7-1.5.7l-1.8-.4-1.2.5-2.3,2.4-.8,1.3-1,3.5,1.9,3.8-.8,1.5-2.8-.9-.5-1.3-2.1-1.2-7.4.6-2.4.8-.6-.5-2.6-3.1-4,1.7-.6,1.2-1-.3-.8-1.4-5.3-1-2,.7-2-.5-1.3,1.8-.8-1.5-1.2-.4h-3.1c0,.1-1-.2-1-.2l-1.9-2.2h-2.4l-6.4-.9-6.8-1.6-8.2-.4h-2.5c0,.1-2.4.6-2.4.6l-6.2.5-.8,1.5-1.7,1.7-2,1.3-1.2-.5-2-.3-1.2.5v1.5l-.9-1.7v-1.4l.7-1.6-.4-1.2.2-2.5-.8-1-1.9-1-3.5-1.4v-1.3l2.1-2.8.8-.5,4.2-1.8.6-1.7-.9-4.1-1.8-3.8-3-5.1-2.2-5.3,3,.4,1.7-.3,3.9-.3,1.7.9,3.5-1.4h1.9c0,.1.8-2.6.8-2.6l2.1.2,1.5-1.3,2.2-.5,1-.7,1.8,2.4,2.1-.2v-1l-.9-1.2-2-.5.5-2.1,1-1.6-.4-2.4,1.2-3.1,2.7-.6.8-.6,1-2.1h3.8c0,.1.4-1,.4-1l1.4-1-4.1-1,.7-3.3v-2.3h2.7l1.3-1.8,1.2-.3,3.1.4h3.3c0,.1.4-1.7.4-1.7l2.6-2.5,1.5-.8,1.4-.2h0l-.6-.6h0Z"/>
  <path id="switzerland" class="cls-1" d="M390.2,471.7l.7,1.3,2.7,1.4h1.3l.9.7-1,3.1-.3,1.4v1.2l1.5.3c0,.1,3.5.8,3.5.8l.4,1,1.5.7,2.5.5,2.1-2,.9.7.2,1.4-.6,3.7.5,1.9-2-.2-1-.9-1.4.3-.6,1.9,1.6,3.7-1.3.3-1.5-2h-.7c0-.1-3,1-3,1l-2.1-.8-.8-2.2h-2.1v3.1l-.5,1.2-2.3,2.7-.2,1,.7,1.8-1.3.7-.9-1.5-1.4-1.3.4-1.3-2.3-.6-2.5-2.1-.2-2.6-1-.6-3.6,3,.6,1.6-1.7,2.3-2.5,1.5-3.3-.8-2.7,1-2.5.5-1.5-.7-.9-1.5-2.4-2.4.5-1.8-.8-2.3-2.3-.3h-2c0,.1-2.4,1.7-2.4,1.7l.5,1.4-2.4,1.7h-1.5v-1.2l1.6-1,.3-1.6-.8-.7,1.2-3,3.1-2.3.5-3,2.2-.9,4-4.2.6-.9-1.4-1.2,1.9-1.5h1.2l.8.8,2.8-.3.8-1.5,1.6-.7,1,.3h2.9c0,.1,3.5-.5,3.5-.5l3.2-.3-.2-1.6,1.4-1.3h1.4l1.3.9h1l1.2.8,3-.2.4.5h0Z"/>
  <path id="czech_republic" data-name="czech republic" class="cls-1" d="M458.2,420l2.2-.4.2-2.2,3.5.8.3,1.2,1,1.2,4.8,1.2,2.8,1.2.8.9,3.4-.7,1.9,1.3-.7,1.2-1.7,1.3,1.9,1.1,1.9,1.7,1.6,2,1,.4,3.7-2.6-1.8-2.5h1.4l2.3.6,3.5,2,3.8-.7v1.7l-1.5.5,2.6,2.2,1.2.8,1.9-1,3.7,1.9.5-.2,2.8.8.5,1.9,2.9,2.3.5,1.7-2.8.4-2.1,1.6-.6.8-2.4,1.3-.7,3.1-1.7.8-2.2,2-1.6.7-1.8.2-3.8-.5-1.5,1.3-1.3,3.3-.9-1.4-5.3-1.7-1.3.9-4-.2-3.1-1.7h-1.6c0,.1-5-1.8-5-1.8l-1.5.4-1.7-.8-1.3.2-.3,3.4h-1.3l-1.5,1.7v1.2l-2.6-.4-1.5.7-4.1-.4-.8-1.4-2-1.6-1-1-2.6-2h-1.4l-1.4-1.7-3.1-2.1-2.5-2.2h-1.4l-2.4-2.1-1.9-2.8-1.5-1.6,1.3-1.8-.6-1.7-3.1-1.6-1.9-3.4.5-.7,2,2.1,2-2.7,1.2-.6,2.3-.5,2.6.3.8-1.4,2.1-.3.6-1,1.4-.5h1.5c.3-.5.6-1.4.6-1.4l4.6-1,3.7-1.6,2-.6-1.6-1.6.8-.6,1.6.2,1.6,1.6v.9l1.5.6.9-.7h0l.2-.2h0Z"/>
  <path id="germany" class="cls-1" d="M442.6,372.5c0-.1-.6-2-.6-2l-.5-.8-.9-1.3,6.1,2.5v1.3l-4.1.3ZM410.2,364h-1.9l-1.5-.7.8-1,1.8.4.7,1.4h.1ZM439.9,364.5l-1.4.7h-1.4l-1.4,1.4-2.2-1.2-.5-1.2v-2.3l.7-1.5,2.1-.9.9,1.3,1.8.6-.5,1.8,1.8,1.3h.1ZM391,357.6l1.9.7,1.7,1.7v1.5l-1.7,1.7,3.4-.3.8,1.3,1.8-.4,4.7,1.9,3.4-.9.7,1.5-.6,1.6-2.3,1.7,1.5,1.3,2.2-.2,3.8.9,3.5-2.6,1.2-.5,3.8-.3,5.3-4.7,5.6.9,1.6,2,3.9,2.2,3.4-.2,1.4,2.1.8,2.6,2,1.4h2.7c0-.1.9,3.2.9,3.2l1.7,3.7-.3,2.8-2,1.9-.7,1.7,2.3,1.9,2.9,1.8,1.5,1.8-.6,2.7,2.1,2.4.8,2-.7,2.7-.8,1.2,2,3.3v1.7l2.5,1.5,1.5,2.8-.4,2.4-1.7,3.8-1.4,1.1-1.5-.6v-.9l-1.6-1.6-1.6-.2-.8.6,1.6,1.6-2,.6-3.7,1.6-4.6,1-.6,1.3h-1.2c0-.1-1.7.6-1.7.6l-.6,1-2.1.3-.8,1.4-2.2-.4-2.7.6-1.2.6-2,2.7-2-2.1-.5.7,2.6,3.6,2.4,1.4.6,1.7-1.3,1.8,1.5,1.6,1.9,2.8,2.4,2.1h1.4l3,2.7,2.6,1.6,1.4,1.7h1.4l3,2.3.6.7-.2,2.9-1.4.9-2.4-.9-.7,3-1,1-3,.8-3.3,1.9-.6,1.4,2.6,2.9v1.4l-.5,1.4,1.8.3.3,2-.3,1.6-1.8-.4-1.3-.9-.2-1.2-1.2-.5-2.6.5-1.6-.8-2.1-.3v1.5l-6.1.5-4.1,1.6-1.2.9-4,.5-1.5-2-2.8-.4h-2.9c0,.1-.2,2.1-.2,2.1l-1,1.7-1.7.5v-1.4l-1.2-.3-.9-1.5-3.7-1.7-.7.5-2.3-1.3-5.3-2.4,1,1.7-3.9.2-1.2-.9-.8.2-1.5-1h-1.4l-1.4,1.3.2,1.6-3.2.3-3.3.5h-3.1c0-.1-.4-.7-.4-.7l-1.3-1.6v-1.6l.6-2.1-.2-2.5.3-1.6,1-1.9,1.5-5.8,3.7-4v-1.4c-.1,0-1.8-.6-1.8-.6l-5-.8-2.1-1.5-3.1.6h-2.2c0-.1-.3-1-.3-1l-1.5-.4-1.9.7-3.7-4.5h-1.5c0-.1.6-3.3.6-3.3l.9-.9v-1.5l-2.9-1.2-1.6-1.7-1-2.5.6-1.8,2.4-1.4-.4-2.1-1.8-.7.4-1.6-2.4-2.2.2-2.5-2.1-1.3.6-.8,2.3-1.7-.7-1.3,1.4-2.9v-1.3l-3.3-4.3.7-1.2,2-.7,2.3.8,4.7-1.4.7-1-1-.9.3-.9,2.7-1.7.6-2.7-.8-1-2.7-.3-.7-1,.6-1.6h3.3c0,.1,1.2-3.9,1.2-3.9l.6-1.8v-4.6c0-.1-1.4-1.5-1.4-1.5l.5-2.8,1.2-1.5.9-.4,4.2-.3h4.7c0,.1,2,2.4,2,2.4l-.6,1.3,1.7.3.9-2.5,1.5.8h1.2c0-.1-.5-1.9-.5-1.9l.2-1.7.9-1.5,3.5.6,3.8-.3v-.6c.1,0-2.8-.5-2.8-.5l-.9-1.2-.2-4.1-1.6-.8-1.7.3v-1.6l3.6-1.2v-1l-3.6-4-.2-1.7h2.8c0,.1,5.5,1.5,5.5,1.5l3.3-.7,1.6.4h-.4c0-.1,0,0,0,0h0Z"/>
  <path id="denmark" class="cls-1" d="M410.6,356.6l2.2,1,2.5.3.4,2-3.7.7-5.3-2.2v-2.6l2.5-.2,1.4.9h0ZM425,355.4h-2.4c0,.1-2,1.2-2,1.2l-.3-1.3,1.7-1,1.3.2,1.8.9h-.1ZM394.8,356.7l-1.3.2-1.8-.5-.6-2.4,2.8,1.2.8,1.6h.1ZM403.2,358.8l-1.5-1.6,2.6-3,.7-.2-1.9,4.8h.1,0ZM455.7,354.6l-2.5-.2-2.5-1v-2.1l.6-.9,4.7,2.4-.3,1.9h0ZM401.1,345.5l2.4,4.5v2.9l-2,1.3h-2.2l-5.7-1.8-1.8-3v-2.4l4.9-1.5,2.7.8,1.6-.8h.1ZM425.5,345.7l-1,.6-.7-.9.9-.9.8,1.3h0q0-.1,0-.1ZM400.4,342.7h-.9v-3.1l1.6,1.7-.6,1.5h-.1ZM424.1,342.7v1.6l-.6.7-2.1.7-1.2,1.9,2.1,1.3.5,1.6-1,.7-2.7.7v5.9l-2.3.6-1.6-2.2v-.9l-1.5-3.3-2.1-.4h-2.3c0,.1-1.6-1.8-1.6-1.8v-2.2l-.9-2.1-1.4-.6.4-1.5,3.3-.2,1.6-2v-.9l1.9-.2.8.7v2.7l1.8.5,1.2-3-.9-1.2,4.1-2.3h1.2c0-.1,3.1.8,3.1.8l-.4,2.2.7,2.1h-.1ZM391,357.6l-1.6-.4-3.3.7-5.5-1.4h-2.8c0-.1-.5-2.3-.5-2.3l-.8-1.5,1.2-.3-.9-4.1-3.4-1.4-2.6-1.5.5-5.9-1-2.4v-7.2c.1,0,1.5-.1,1.5-.1l3.3.8,1.6.9.6-2,1.7-1.7,2.1-.8,1.7,1.4.3-4.7-1.7-.5-1.4.4-1.4,2-1,2.5-2,.2-1.6.7-2.5-1.5v-1.5c.1,0,1.8-2,1.8-2l2.1-2h2.3l1.7-.6h4.1c0,.1,2.9-1.3,2.9-1.3l2.9-3.8,1.6-1.6,3.5-.5,3.1-1.8-.8,2.6,1.3,1.8v3.1l-.9,1-1.5,2.6.2,5.9,2.6,1.6h4.3l1,1.2-.7,2.3-2.7,1.5h-.9l-1.5-1.2-1.2.9-1.3,5.3h-2.1c0-.1-1.3.4-1.3.4l1.5,1.3-1.4.8-3.6,3.3,1.2,3.6-.2.9-1.6,1.4-.6,1.2,2.4.3,1.4,3h0v.4h-.1Z"/>
  <path id="estonia" class="cls-1" d="M538.6,299.2l4.1.2,4.2,1.9-1.9.7-3.9,2.6-.3.5h-2.7c0-.1-1.5.1-1.5.1l-1,.9-.9,2.9-1.7.5-.3-.9,1.7-1.9-1.6-1.5-2-.7.9-1.9-1.7-1.7,1.6-.2,1,.5,2.1-.5.5-1,3.4-.6h0q0,.1,0,.1ZM547.3,300.2l-.9.2-2.5-1.2,1-1,2,.5.4,1.5ZM541.6,296.1l-.8.7-.9-.6-.9,1.7-1.4.3-2-2.6-3-.5-1.4-.7,4.7-.4,1.3-1.7h1.4c0,.1.4,1,.4,1l2.2.3.9,1-.4,1.5h0ZM597.4,315.9l-2-.2-3.6-1-4.2,1.3-2.9-1.2-3.7-2.8-.6-.7-2.4-.5-5.9-2.6-1.2.7-1.6-1-8.8,2.9,1-3.6v-3.8l-2.3-.4-.9,1.4-1.4.3-4.3-1.4-1.3-2.2-1.7-1.2-.8-1.3v-1.9l-1.6-2.1.7-1.2-.7-2.9,3.1-1.3,3.5-.2.9-1.4,2.1-1.4,2.4.2,3.3-1h6.6c0,.1.4-1.7.4-1.7h3.4l8,1.3h1.9l2.9,1.3,1.5.3h4.2l6.6.5,1.3-1,1.6,1.3-1,1.5-1.3.4-.9,3.4-.8,1-1.8-.3-2.6.2-2.1.5-1.4,1.2v1.2l2.8,2.4,1.5,2.9,2.7,2.3.8,1.4,2.5,3,1.9,2.6-2.4.6-1.3,2.1-.2,2.1h0Z"/>
  <path id="finland" class="cls-1" d="M529.1,273.7l2.1.2-.6,2.9-2.4-1.9.9-1.3h0ZM527.1,274.2l-2.2-.6.9-.8,1.3,1.5h0ZM520.3,271.4l-1.6.7-.3-1.8,1.9,1h0ZM547.1,205.4l-1.6.5-1.4-.3-.2-.9,2.1-.6,1,1.4h.1ZM578.6,148.1l-3.9,1.4,1.7.8.8,1.3-2.1,3.4v.6l3.4,4.2,7.6,1.8,2.4,1.9,3.8,2.4,1.9.9v2l-3,3.1-2.7,3.3-1.3,1.8.4,1.8,2.7,2.2,2.4,2.3,3.1,3.7,3.1,2.6,3.1,4.4.4,1.5-3.9.7,1.3.9-.6,1.4.3,2-.5,1.6,2,.3.3,1.4-1.8,1v.9l1.5,1.8,1,.6,3.4.6.9,1.7-1,1.8,1.9,2.3,4.7,1.9.7,1.4.2,1.8-2.5,3.1-2.1.8.7.8,4.7,2.7,6.9,3,2.7,1.4,2.2,2,2.3,1.7.5,1-1.7,4.7-.7,1.3-2.3,2.3-3.6,2.9-2.4,2.4-5.6,6.2-2,1.6-2.2,2.3-5.1,3.5-.7.8-2.6,1.6-5.9,5.5-3.7,1-2.7-1.2-1.9.2-1.3.8-2.6.2-2.1.6-1-.7-.7.6-2,.2-2.1-1,.3,1.6-3.5,1.6-.8-.9-2.1,1-2.2.2-1.2.8-6.2,1.2-1.6,1.4-1.3-.3-7,1.2-3-.2-2.8,2.1-1.9.4,1.6-3.1-2.5-1.2-1.3-1.7-.7.4-.3,1.6-1.6.8h-2.1c0-.1-.4-2.6-.4-2.6l.8-2.4-3.8-.6-4-1.5h-.9c0-.1-.7-1.5-.7-1.5l-2.1.9-2.2-.9-1.8-5.6v-1.4l.9-1.7v-3.6l-.7-2.1,1.2-.6-.9-1.7-2.3-3.1-1.7-1.2.5-3.5-.6-1.7-2-1.2-1.2-3,.6-2.5,2.5-2.3v-1.3l.9-1.2-.5-1.4,2.8-.5,1,.4,2.5-.4,2-1-1.2-1.9,1.6-.7,1.3-1.3v-1l2.3-.5,2.5-2,2.4-1.2,2.4-2h1.2c0-.1.3-1.5.3-1.5l2.6-2,.8-1.7,2.4-1.9,2.3-4.1,4-1.3,4,.3-.6-1.8,1-.3-.6-1.4-1-.6v-4.8l-1.4-.9-4.7-1.7h-1.8c0-.1-1.3-1.4-1.3-1.4l-4.8-.7-1.7-2.6-2-2.3-1.9-.6-1.4-2.7v-1.4l1.6-1.4v-1.9l.6-1.5-.6-.9-3.5-2.7-.8-1.7v-1.2l1.2-.8-.6-1.4-2.9-.4.3-2-.7-1.5-.4-2.5,1.2-1-1.9-.9-2-1.6h-1.5c0-.1-1.3-1.8-1.3-1.8l-3.7-1.9-8.7-1.8-4.4-1.9-5-2.4-3-1.2-.4-.9-3-.8.5-.4h2.2l2,.4.5-.6-1-1.5,2-1.2h3.8l8.3,5.8,1.5,1.9,7.2.6.8.5h1.9c0-.1,3.9-1,3.9-1l1.3-1.3h1.6c0,.1,3.8,1.3,3.8,1.3l4.1.8,2.7.8,1.4-.6.5-1.8,1.7-1.4,2.2-.3,1.6-1.5-.7-3.4.6-1.8.7-4,2.7-1.8,1.8-1.9,2.2-.2,4,.4.9-.2,3.7-1.7,3-.3,1.9,1.3,4.4,2.1,4.4,1.2,3.8.8,2.7,2.8-.7,1-3.4,3v.7l1.8,1.4h0v.7h0Z"/>
  <path id="united_kingdom" data-name="united kingdom" class="cls-1" d="M259.1,422.8l-1.7,1.4-1.4.2-2.6-1.3v-.5l2.6-1.2,2.1.6.9.7h.1ZM220.9,381.1l1.4.9-3.6,2-1.3-.6-.9-1.3v-2c-.1,0,1.2-.5,1.2-.5h1.9l1.4,1.5h-.1,0ZM196.4,369.2l-2.2.4h-3v-1.6c.1,0-1.4-.5-1.4-.5l-1.9-2.8-1.4-.5-2,1.7.5.9-2.5,1.9-3-.3-.8-.7-2.2-.4-.2-1-2.8-2.1,1-1.5,3-.9-1-1.5.2-.8h1.7c0,.1,2.3-.7,2.3-.7l1.3-1.7,1-2.4,2-.9,1.4.6,2-2.1h2.9c0-.1,2.8-.8,2.8-.8l4.1.3,1.2,1.2.5,1.8,1.4,1.8,1.8,1.5v.9l-2.1,1.2,3.7.3,1.3,2.6-2.2.3v1.5c-.1,0,1,.2,1,.2l-.6,1.5-2.7.6-1.5,2.3-1,.5-2.4-.5h0l-.2-.3h0ZM210.8,348l-2.7-.5-.6-2.1.9-1.5,1.9.7.6,1.4v2h-.1,0ZM198.7,340.5l.7,3.6-2.5,1.4-.8-2.5-1.5,1,.2-2,1.6-.3,2.3-1.2h0ZM200.5,342.3l-1.2-1.3,1.7-2.3,1.8-1v1.7c-.1,0-2.3,2.9-2.3,2.9h0ZM203.1,334.1l-4.8.8.6-3.1-2-.9.3-.9,2.2-.5,1.8,1.8,2.2.6-.3,2.3h0ZM186.1,322.2l-1.6-.2-.4-1.5.2-2.4,1.7.2v3.9h.1ZM199.6,316.2v2.9c-.1,0,2.9.8,2.9.8h2.1c0-.1.4.5.4.5l-3.5,2.8h-.7c0-.1-.2-2.4-.2-2.4l-1.5.3-2-.3-1.3-2-2.8-.5-.9-1.2,1.5-.6.3-1.3,2.9-.6,1.6-.7.9,1,.2,1.2h.1ZM187.1,313.5l1.3.9-1.2,1.4h-1.6l-2.3-1,.2-.5,3.6-.7h0ZM199.5,303.1l-1.7,2.7-1,.7-.2,1.8-3.1,1.7-3.4,2.5-1.5-1,2.7-1.8-2.2-1-.2-2.7.8-.7,1.5.7,2-.3-.7-1.3,6.6-3.4.4,2.1h0ZM236,300.8v1.3l-1.4,1.7-2.3,1.3-4.4,2.9-2.6,1.4-.5,1.7h1.5c0,.1.2.9.2.9l-2.3,1.7-.6,1.6,3.1-.4,5.6-1.6,3.8.5,2.7-.3,7.2.2,2-.3,2.4,1.4,1,1.8-2.9,3.6-.8,2.4-2.1,3.7-2,2.1-2.1,2.6-2.2,1.2-3.3.5,4.7,2-1.5,1.9h-2.5c0,.1-2.4,1.9-2.4,1.9l-2.2.7,3.8,1.2,2.5-1h2.8c0-.1,5.5,1.9,5.5,1.9l3.8,3.6,2.1,1.6.5,1.2,2.2,7.2,1.6,4,1.7,1.9,4.7,1.7,1.2.6,3.6,3.5,3.6,2.5-1.5,1.6.4,1.3,2.2,3,.3,1.7h-1.4c0-.1-2.4-1.6-2.4-1.6l-.3.7,5.2,3.5,1.7,2.1,1,2.8-.6,1.2-3.1,2.8,2.9,1.5,1.3-.2,2.1-2.2,1.8-.2,4.4.3,4,1,3.5,2.2.7,1.2.4,3.3-2.3,6.1-2.9,2-.5,1.8-2.2.9-1.8-.3-2.5,1.3,1.8.6v1.8l-1.2.6-2.6.2,1.2,2.1,2.6.4,4.5-.2,2,.2-.2,2.8-.4.4-4,1.8-1,1.9h-2.3c0-.1-1.2.6-1.2.6l-6,2-5.1-.8h-3c0,.1-4.2.7-4.2.7l-4.4-1.3-1.9-.2-2.9,1.8-4.4.5-2.1-.2.9,1.6-.9.4-4-.5-1,.5-1.5-.2-2.8-1.5h-2.7c0-.1-5.1,1.2-5.1,1.2l-1,1.4-1.4,3.7-1.2,1.3-1.5.2-4.7-2.6-1.6.5-2.6.3-2.8.7-4.1,2.5-.9,1.6-1.4.2-1.2-.9-1.5-.3-2.4.8-.3-1.4,1-1,2.9-.7,2.6-2,2.3-2.4,4.8-4,.8-3.3,2.8-.7,1.5-2.6,4.3-.6h2.9l2.9.5h3c0-.1,1.2-.8,1.2-.8l2-2.5,3.8-3.1-4.9,1-4,2.4-3.4-.4-2.4-2-2.2-.8-2.2.4-.7-.9-2.5-1.8h-2.7l-3.8,1.8-2.7-1.3-.9-2.4.3-1.5,1.2-.7,2.6-.6,4-1.8,2.3-.7,2.9-2,1.3-2.4-.3-2.1.5-1.5-.9-1.8.3-1.6-3.1.3-2.8,1.3-.7-1.2,2.9-1.9,1-1.5,2.7-1.8,3.8-1.4h2c0,.1,3.9-.6,3.9-.6l2.8,1.4-.8-2.2,1.3-.4v-2.5c.1,0,1.8-2.3,1.8-2.3l-1.3-.6v-2.1c.1,0,1.7-.8,1.7-.8l.7-2.7-1.8-.5-2.2.6-1.8-1.6-2.9-3.8-.3-1.5,1.7-3.3,2.4-2.1-2-.8-1.5.2-2.8,1.3-2.1,1.4h-2.2l-.8-.9h-1.2c0,.1-2.6,1.3-2.6,1.3l-3.7-1.4-1.2,2.4-2.7-2.6-.3-2h1.4l1.3-2.5,3-4.2.6-1.3-.5-1.5-2-1.6.3-2.7.8-1,1.6-.4-2-1.3-3,.9-1.9.9.3-2.1-.6-.4-1.6,1.5v3.5c.1,0-2.1,6-2.1,6l-1.2.9-1.5-.5,1.2-4.1,1.5-2.6-.6-.3.3-3.8,1-3,1.8-4,2.3-3.7-4.3,2.8-1,.5-2.5-.4-.8-.7-1-2.4,1.9-.2,1.8-1.2-1.6-.7,1.6-.9,1.8-2.2.4-2-1-1.6-1.7-.6-.2-.9,1.8-2-.7-1.6,1.7-3.3h3.1c0,.1,2-.3,2-.3l-2.4-2.1.7-3,3.9-.3-.8-1.9.3-2.1,1.7-.9,1.4.2,1,.9,2.7-.9.6.8,2.9-.6,3.9-.3,4.7-.6,2.3-.4,2.4.2-.6,1.8h0l-.5-.9h0ZM235.3,296.6h-1.4c0,.1-1.4-1.4-1.4-1.4l1.6-.3,1.2,1.7h0ZM236.7,293l2.8.6-.6,1.5-1.5-.7-2.1.3-2-1,.4-2.2h1.8c0-.1,1.3.4,1.3.4v1.2h-.1,0ZM240.6,290.6l-1,.3-.4-1.3-1.8-.6.4-.8,2.8,2.4h0ZM257.5,270.1l1.7,1.9,1,.5-1.4,4-.2,1.7-1,1.8-.8-.4.9-3-.5-1.2-1.8.3-.4-.9,1.7-1.5-.8-2.1-1.2-.2,1.6-1.7,1.3.8h-.1ZM260.5,270.6l-1.5-1.4,1.4-.6v2h.1Z"/>
  <polygon id="georgia" class="cls-1" points="818.7 542.2 818.7 550.6 815.3 549.4 814.1 547.7 810.8 545.5 806.5 544.5 801.4 541.5 798.4 539.7 799.3 537.5 800.2 537.3 805.2 538.2 806.8 537.8 813 540.4 816.6 541.5 818.7 542.2"/>
  <path id="greece" class="cls-1" d="M598.8,668.8h2.4l1.8-1,2.3,3.9h1.8l3.7-1,3.9.2,1.5,1,2.7.2,2.4.5,3.5-.7.4.4v2.9l1.4.2.7-.7,1.8-.6h1.9l1.7-.8-.4,3.7-.9.4h-4.6l-8.5.9-5.6.4-.7-.2-.7-2.3-3.5-1.2-6.5-1-1.6-.4-3.3.2-1.2-1-.4-1.9.2-2,1.5.3.4-1.5,2,1.2h0c0,0,0-.1,0-.1ZM644.3,670l-1.7-2.2,1.2-.5,1.3,2.5-.7.2h0ZM586.9,658l-1.5.2-.7-2.3.5-1,2.2,2.2-.5.9h0ZM652.7,662.3l-1.8-.4.4-1.9-.7-1.7,2.4-2.8,3.4-1.4.9.9-.9,2.6-.9,1.4.4,1-1.7.2-1.5,2h0q0,0,0,.1ZM632.8,651.5l-1.6,1.3-.9-.6,2-1.3.5.6ZM639.3,649.2v-.7l1.4-1.2,2.6-1,1.3.6-2.6,1.5h-1.6l-1,.8h-.1ZM616,643.5l-.9,1.4-1.4-.7.4-1.3,1.2-.6.7,1.3h0ZM619.7,645.2l-1.2.6-1.5-2.3,2-2.1.9.7v1.9l-.3,1.2h0ZM625.4,636l.6-1.7h1.7v1l-2.3.6h0ZM602.7,635.3l-1-.4.4-1.3,1.2.5-.5,1.2h-.1ZM635.8,631.4l2.9.7-.7,1-1.7.9-1.8-.9-1.3-1.3,2.5-.5h0ZM555.3,631.5l.4,1.3-1.2,1-1.7-1.3-1.3-1.9.9-1.2.9,1.3,1.8.7h.2q0,0,0,.1ZM611,632.2h-1.5l-2.5-2.3.9-1.5.9,1.3h1.4l.7,2.5h0ZM550.9,622l.3,1.9.9.3,1.4,1.7-.2,1.3-2.2-.8-1,.2-1.2-2.1-1.4.2.6-1.9h1.5l1.3-.7h0q0,0,0-.1ZM625.2,624.7l-1.2.9-1.9-1.8,1.5-1.4-2.2-2.5v-1l2.1-.5,1.4.9.6,1.3.4,2.7-.7,1.4h0ZM551.6,618.3h-1.4l-.4-.8.8-2.5,1.2.3.2,2.6-.4.4h0ZM587.9,612.6l.9,1.8,5.8,2.6,2.9.3,1.8,2.7-.2.6,1.6,4,1.2.9,2.8.3.4,2-.9.8-2-.7-2.2-1.7-.4-1.4-2.3-3-3.8-.2-1.6-.7-.6-1.8-1.6-.9-2.1-2-1.6-1.2-3.1-1.2-.6-.7,2-1.4,2.2-.5,1.5,1.3h0c0,0,0,.1,0,.1ZM627.6,606.5v.9l1.9,1.6.7,1-1.3,2.2-4.2-.8-.8-.8,1.7-1.4-.9-.5-1.3,1.6-2.3-.7-.9-.9.7-1.5h1.6l1.8-.7v-.6l2.4-.2.9.9h0ZM542.3,604.8l-1.4.3-1.3-.8-1.3-2-2.3-2.3.7-1.2,1.7-.4,1.5,1.3-1.2,1.3.8.7.9,2.5,1.7.6h.2,0ZM613.5,595.8l-.7,1.5v1.4l-4.1-.7-.3-2.4h2.3l.8.7,1-.9.9.5h0ZM616,588.6l-1.5.4-1.8-1.4,1.5-.5,1.8,1.5h0ZM603.5,585.4l-1.7.6-1.9-1.2,1.2-2.4h1.4l1,1.5v1.5h0ZM620.2,583.7l-.5-.7-2.2-1.3-4.8-.6-2.4-.9-.9.2-2.1-1-1.3.4-2.6,1.8-1.6-.2-1.7-1-2.3.4-1.8,2-1.9,1-1.9-.4h-2.4l-.2,1.2,2.1,2.2-.5,1,.5,1h2.2l2.6,1.5-.7.7-3.4-1.3h-1.3l-1.3,1.2,3.7,2.8.5,1.5-.6.9-1.6-.8-2.6-3.4-3.3-.6-.4.6,1.3,2.5,3,1.8-.6.6-3.1-1-1.2-1.7-.4-2.1-5.8-2.9-1.5-2.9-2.3,1.4.4,2.1-.6,4,.4,1.4,3.7,3.9,1.4,2.8,2.7,2.2,2.7,3.4.7,1.9-1.4,1.2-1.4-.5.3-2-2.3-1.3-2,1.3,1.6,2.4.5,1.3-.4,1.4-1.7.8h-2.7l2.5,1.6,3.5,1,1.7,1.2h1.6l1.8,2.3,2.7.6,1.8,2.2,2.1.5,1.8.8,1,2.2.3,3,.6,2.2v1.8l-1,.5-1.4-1.7-4.4-3.8-1-.4-1,.7-3,.5-2,1.4,1.6,1.4v1.3l.9,1.6,2.1.4,2.1,2.5-3.1,1-1.2.7-.8-.5-.2-1.3-4.5-2.3-.6.6.7,2.5,1.4,1.7,2.3,4.5,1.4,3.9-.2,2.2,1,1.6v1.6l-1.7-1.3-2.3-2.6-.8-1.6h-2.3l-1.4,3.6.2,2-1.7-1.2-.2-3-2.2-2.9-.9-.4-1.4-2-1.6.6v3l-.5,1-2.3-2-2.4-3.7-.2-1.9,1.5-1.8-.3-1.3-1.7-2.6-2.2-1.6-1.3-.5-.7-1.7-2.1-1.4v-1l2.1-1.8,1-2.7,2,.5,1.5-.2,2.1-2.5h1.7l4.1,2.3,4.4,1.3,2.2,1,1.3,1.2,1.7.3-.5-1.5.8-.4h2.2l.2-1.7-2.1-.6-.8.2-2.5-1.5-2.4-.8-2.3-1.6-1.3,1.4h-1.3l-3.6-.9-2.2.7-4.4.7-1.2-1.4-2.7,1-1-.7-2-4.4-1.8-2-1.3-.5-.2-2,1.6-.2,2.5.9.9-.6-.6-1.7-2.6-.2-1.9.5-2.9-2.3-1.6-1.8-2.3-1.2-1.8-3.6-2.7-2.7,2.8.9.7-.7.3-1.6.9-.7-1-2.3,1.8-1.4,2-.3.6-.5.3-2.1,1.3-3.3,1.8-.8.8-2.7-1.2-1.9v-1.2l4.8-.3.9-.6,2.4.6,2.5-1.4,1.8-2.6.8-.3,3.1-.4,3.5.6,3-1,.2-2.2,2.1-.3,3.1.2,1-1,2.5-.2,2.7.2,3.1-1.2,2-.2.2-.9h4.4l1.7-.4,1.3,1.8,2.5,1.5.9-.6,3.9,1.3,1.8,1.2,3.6-.9,3.4-.4,1.9.3,2.6-1.3.2-.8-.9-2.8-.7-1,1.7-1.2,1.7.5,1.3.3,2.4,1.6.9,3.3-3.6,2.6.5,4.6-2.6,3.4-.8.4h0l.2-.2h0Z"/>
  <path id="croatia" class="cls-1" d="M492.1,546.6l2.4.4-1.2.9-1.3-1.4h.1ZM505.7,547.8l1.6.2.9.9h0l-3.6.5-4.6-2v-1.3l4.4,1.7h1.3ZM499,544.5h-6.7l-1.8-.3-.5-1.4,1.9.2.5.6,6.6.8h0ZM493.5,542.1h-2.1l-2.7-.7.3-1.2,5,.6-.5,1.3h0ZM471.2,524.8l-.3.4-3.5-2.8-.3-2,2.9,2.8,1.2,1.6h0ZM466.1,518l-2-.2.8-1.2,1.2,1.4h0ZM461.7,519.6h-.9l-1.8-4.5.4-1.3-.8-2.1.9-.3.5,2.2,1,.9v1.7l.6,3.4h.1,0ZM465.6,514.4l-1.6.3-1-1-1.4-.2-1-1,1-.7.5-1.3,3.5,4h0ZM517,499.7l-.5,1,1.7,2.8.2,1.7,1.4.4-.4,2.1,1.3,1,3.1,1,.9,1.7h-2.4c-.2.1-1.7.4-1.7.4l.7,2.7-.7,1.4-2.2-.4-1.4-2.3-1.2-.8-2.3-.2-2.7-.7-1.9.2-1.9-.3-2.3,1-1.7-1.4-1.8.6-2.9-.8h-2.6c0-.1-2.8-1.7-2.8-1.7l-1.6,1.3-3.4-.3-2.8,3.4-1.9-1-1.8-1.9-1.9-.4-1.3.6-.2,6.7,2,1.4,3.6,3.4,1.4,4.2,2.4,2.5,3,2.5,1.7,2,5.1,4.2,2.6,1.3.4,2.3,1.6,1.7,3.1,2.6-.4,2.1-3.7-2.9-2.7-1.6-3.3-2.9-4-1.2-2.8-1.3-3.5.6-1.9-.2-.7-2.3-6.1-4.1-4.5-4.2-.8-1.4,3.3-1.3-1.5-.8-4.1-3.6-1.3-1.7v-4.3l-.9-1.8-3-2.3-1.2-1.2-2.2-.7-1.5.9-.3,2-3.1,5.2h-1.4l-3.3-4.4-.5-2-1.4-4.1.7-.5.5.6,3.5.8,1.5-1.4,1.2.5h3.8c0-.1.6-.4.6-.4l1.3-2.3,2.7,2.2,1.6.7,1.4-.5,2.1.7,1.7.2,1.3-.4-.8-2.4.7-.7-1-1.2,2.2-1,2.2-.6.4-1.2-.2-2.3-.9-.9.4-1.5,4.6-1.8.7-1h2.1v-1.8l.9-.8,2.6.6,3,1.3,1.8,1.3.9,1.4,2.8,1.9,2.3,2.3,1.4.7,2.6.6,1.4,1.4,3.5.9,5.1.2,2.6-.9,1.2-1.5,3-.4h0c0,.1,0,0,0,0h0l-.4.8h-.1Z"/>
  <path id="hungary" class="cls-1" d="M554.8,459.2h1.6l1.5,2.4,2.3.8.9,1.2,2.4.4.9.7.7,1.8-2.3,2.4-4.8,1.2-2,2.5-1.3,1v1.8l-1.4,1.5-.7,2.6-1.5,1.6v1.3l-1.7,2.8.2,1.4-2.2,1.6-1.6,4.9-1.4.9-2.7-.3-2.6,2.1-1.5-.5-3.4.9-1-.5-2.9-.3-1.2.2-3-.4-1,.3-1.6,1.7-2.3,1-1.7-.5-2.1,1.2-3,.4-1.2,1.5-2.6.9-5.1-.2-3.5-.9-1.4-1.4-2.6-.6-1.4-.7-2.2-2.2-2.9-2-.9-1.4-1.7-1.3-3.2-1.5-2.1-2.1-1.5-3.6-2.3.2c0-.1,1.9-1.9,1.9-1.9l2.6-.5.3-1.9-1.2-1.7.5-.7-.4-1.6,2.3-1.3.5-1.5-.5-1.2-2.7-.7,1.4-1.5,2.6.9,4.1-.3-.7-2.1.6-2,.6-.7,2.2.3,4.4,2.8,1.7.7h4.9c0,.1,7.3-.3,7.3-.3l.6-1-.5-1.4.4-1,1.5-.7,4.5-.4,2.5-.6,1-1.6.7-.2,3.7,1.5,5.2-2.6,1.7-3.7,1.9-.4h2.8c0,.1,2.6.7,2.6.7l4.8-.7,1.5.9,2.3,2.3.6.2,4.5-1.2h0l.4.2h0Z"/>
  <path id="ireland" class="cls-1" d="M196.4,369.2l.7,1.2-2.3.4,1.6,5.5.6.9v4.3l.9,3.4v2.6c.1,0-1.3,1.9-1.3,1.9l-.9,2.2-.2,1.9-1.7,2.2-1.6.9,1.7,1.6-2.9.8-2.7-.3-1.4.8-4.1.2-3.9.7-1.8,1.9-2.6.7-1,1-2.4.8-1.8-1.3-1,.2.2,2.2-3,1.4-1.9.3-1,.7-6.1,1.5-2-.5-3.5.8h-1.3c0-.1,1.7-2,1.7-2l1.7-1.4-4,.6-1.5.5-.6-.6,3.4-2h-3.5c0,.1-3.1-.3-3.1-.3l-.4-1,3-2.4,2.5-.9v-.9c-.1,0-5.5.1-5.5.1l.5-1.2,1.8-1h1.9c0-.1,1.6.5,1.6.5l1.2-.8-.6-1.8,4.1-2.4,3.1-.3,3.5-.7,3.5-.8-2.5-1.3-2.4,1.9-2.7.3-2-.5h-2.2l2.8-2.1,1.7-1.8-.8-.7,2.1-2.4,3.8-1-1.7-1.4-4.1.2-1.5-1.4h-2.7c0,.1.4-1.2.4-1.2l-3.7-.2.5-1-.6-1.2,2.9-.6-.2-2.1,2-.8,2.1-.4v-1.2c.1,0-2-.2-2-.2l-2.1.4.8-2.2-.8-1-.4-1.8-.9-1,2.9-.2,1.3-.5h4.9c0,.1,2,1.5,2,1.5l1.8-1.3,5,.9.6-2.7,4-1.6,1.3-2.1-3.9.4-3.8-1,.7-.8,2.2-.7,2-1.7-.3-1.2,1.8-2.8,3.3-.8h2.5l1.7-.9,1.3,2.1-1,1,.6.9,1.3-.8-.5-2.2.9-1.4,2-.3.6-.8,3.4,1.8-2.6,1.6-.5.7-2,.9-1,2.4-1.3,1.7-2.3.8h-1.7c0-.1-.2.7-.2.7l1,1.5-3,.9-1,1.5,2.8,2.1.2,1,2.2.4.8.7,3,.3,2.5-1.9-.5-.9,2-1.7,1.4.5,1.9,2.8,1.5.5v1.6c-.1,0,2.9,0,2.9,0l2.2-.4h-.3,0Z"/>
  <path id="island" class="cls-1" d="M103.1,186.5h1.3c0,.1,2.9-.7,2.9-.7l2.3-1.2.5,1.2-2.6,2.5,2.3.9,2.1.3v1.8l-1.9,1.7.8.3,3.7-.5,1,2.4,1.6-.2,2.5.3,1.5,1.3,1.3-.3.5.9-.7,1.3-1.6.6,2.2,3v1.2l-1,.7h-1.4l-1,2.2-1.3,1.2-2.1,1-2.7-.5-1.2,1.6.2,1.5-1.4,1.4-5.6,2.2h-2.6l-2.7.5-6.5,2.1-4.9,2.9-2.1.7-3.3.3-1.9.5-6.2.8-2.1.5-1.3,1.2-.5,1.5-4.2,1.2-4,.7-6.7-.5-5.7-1.4-4.7-.3-4-2.6-3-1-3.8-1.9-2.4,1.2-13,.3-.8-.5-.2-2.2,1.2-.8,1.4,1.3,5.2-1.2,2.8-2,2.6-2.8-3.7,1.3-.2-2-.9-1.2-1.8-.8-.3-.8,1.2-.9-2.4-1.3h-2.7c0,.1-6.9-.4-6.9-.4l-4,1h-2.1c0,.1-.9-.9-.9-.9v-1.2l1.6-.3h1.9c0,.1,4.3-.5,4.3-.5l1.5-.6.8.5,3.8-1.2,1,.2,4.2-.2h4.6c0-.1,1.2-.9,1.2-.9l.4-1.2-2.9.9-3.9-.5-.6-.9,3.8-1.7,2.8-.8-.8-1.4-3.4.2-.7-.8-2.7-.4-1.9.3-.9-.5-2.5.6-5.5.9-3.5.9-3.3-1.2-2.5-.2,1.5-1.5h2.1c0-.1,1.8.7,1.8.7v-3.4c.1,0,1.4.3,1.4.3l2.9,1.2-.7-2.9h2.3c0,.1-2.3-1.6-2.3-1.6l.5-1,1.7-.3.8-1h2.5l2.4,1.2.2,1.5h2.2l1.2-.8.9.6.5,1.3h1.3l.4-2.3-3.8-1.2-.3-1.5h3.9c0-.1-1.8-1.3-1.8-1.3l-3.1.2-1.5-.4,2.7-1.3h3.6l1.5.2,2.4,1.8,2.1.6,3.3,2.4,2.3.9v1.3l.7.8-2.4,3.6.9.7-.8,1.7,2,.6,1,1.8.9-1.9,1.6-2,2.4-1.4h.9c0,.1.9,1.2.9,1.2h.9c0,.1,1.5-2,1.5-2l.7-4.5,1.8-.9,1.9.7,1.4,1.7,2.7,2.2,1.9-.5v-2.4l1.2-1.4,2.1-.3,2.3-.8,2.4-.2,1.8,1.5,1.3,1.5,1.8,1.2.7,1.9.9-.3-.2-1.8-1.5-2.7.3-.9,4.3.2,3.1,2.4,1.4-.3,3.8-2.9,2.4.8h1.9c0,.1,2.9-.7,2.9-.7l.8-1.3-.9-2.4.6-.4,2.7-.6h2.8c0,.1,2.7,2.3,2.7,2.3v1l1.6.8h0v-.3h0Z"/>
  <path id="italy" class="cls-1" d="M483.8,625.4l-1.3,2.6-2.9,4.5-1.6,5.3.3,2.1,1.7,1.5-.7.5,1.7,1.9v1.4l-1.8,2-.4,1.8v1.6l-2.9-.6-1.5.3-3.9-1.5-2-2.9-3.1-2.1h-3.1l-1.5-.5-3-2-3.1-1.5-2.7-2.2-1.8-.4-1.6-1h-3l-2.4-1.7-1.4-2.4,1.4-3.9,1.5-.8.9-1.3,2.4,2.4,1.9-.8,1.5-1.7h2.5l.5,1,1.5.3,2.6,1.7,1.5.4,3.6-1,3.1.4,2.9-.5,1.8-.6,1.3-1,1.5-.3,3.7.3,2.1-1.3.8.2,2.1-1.3,1.2,1.2h-.3ZM401.7,581.8l.7.9,1.9,5.2-.6,1.7-1.4,2.1.8,2.9-.6,12.1-.6,3-.9.4-3-1.3-1.6.3-1.3-.6-.3,3.1-1.9,2.2-3.1-.2-.7-.6-2.5-4-.4-4.5.6-1.4v-2.6h1.2v-1.9l-1.9-1.3v-2l.7-1.5v-2.7c-.1,0-.9-.9-.9-.9l-.8-2.4-2.3-2.5v-3.6c.1,0,3.7.6,3.7.6l1.4-.3,3.3-1.6,2.2-2.6,1.5-.5,1.6-1.9.7.9,2.3.8,1.3,1.6.9.5-.7,1.5,1,.8h0l-.3.3h0ZM410.4,549.5l.3,1.5-2.6.5-1.2-1.2,3-.2.4-.6h.1ZM449.5,489.9l-.8.8-3.1,2.1.7,1.5,2.4.7-1.7,2.2.3,1,1.4.2-.4,2.1,2,1.2,1.6,1.4.2,1.5h0l-.2-1.5-1.6-1.4-2.5,1.6-3.4-.9-2.2,2.1-1.6.4-1.8,1.2-3.4,1.3-1.9-.4-1,.7-.4,3.3.8.6,1.6,2.7,1.8,1.2-.7,2-.9.7-1.4-.5-.3,1.8.9,4.7,1.5,3.4,1.3,1.4,2.8,2.3,2.8,1.2,5.3,3.9,2.9,1.2.7.7,1.9,2.9,1.7,3.4,1.9,5.3,1.4,2.6,2.4,3,5,4.3,4.5,3,4.2,2,3.1.3,7.3-.4,2.7.7.4,1.3-.4.9-3,2.2v1.8l1.6,1.3,7.4,3.4,7.6,2.7,2.3,1.5,2.8,2.2,6.7,3,1.2,1.5,4.2,3.1,1.9,2.5.5,1.9-1.6,4.6-1.7-.5-2-1.4-3.3-5.7-5.2-.5-3-1.4-.7-1.5-2.4-.4-1.4.9-1.5,2.1-1.6,3.1-1.6,4.5v1.8l1.2,1.8,3,1,2.5,1.6,1.7,1.7.3,4,.9,2.2-.9,1.4-2-.3-2.6.7-1.8,1.5-.7,1.5.5,3.6-.3,1.5-3.5,2.6-1.7,2.6-1,2.4h-4.5l-1.2-1.6v-2.3l.5-1.4,1.7-.7.9-2.9-.5-2.1,1.2-1.7,2.9-.7v-3l-1.5-1.4-1.5-5.3-2.5-4.5-1.5-4-1.2-1.9-1.5-1-3.9-.3-4.8-2.7-.3-1.2.6-1.2-1.2-2.9-2.1-1.8-2.7.6h-1.3v-1.7l-2.1-1.4-2.8-.2-.7-.7-2.7-4.2-1.8-1.8h-2.4l-4.1-.8-2.1.7-3.4-2.7-2.9-.9-6-5.6-1.9-2.1-3.7-2.3-2.4-3.4-1.9-1.3-4.2-1.5-.3-1.4-3.3-3.3-1.8-1-1.4-2.2-2.6-.5v-2.8l-1.2-3.7-1.8-2.3-1.3-5.6-.8-1.6-1.9-1.2-4.2-1.3-6-3.6h-1.2l-3.6-1.5-2.2-.2-2.7,1.3-3.3,3.4-2.6,3.6-.9.6-3.6,1.3-3.1.5-.2-1.6,2.2-2.7-.3-2.1-3.5.6-5.3-2.5-.9-.9v-1.5c-.1,0-.8-1.4-.8-1.4l1.5-2.6.8-.7-.5-1.8-3.4-1.5-1.6-3.3.8-.4,2,.2,1.8-1.4,1.3-.3.8-2.6-1.9-1.7-1.8-2.7-.9-.6v-1.7c-.1,0,2.6-1.8,2.6-1.8l1.5.7,2.5-.5,2.7-1,3.3.8,2.5-1.5,1.7-2.3-.6-1.6,3.6-3,1,.6.2,2.6,2.5,2.1,2.3.6-.4,1.3,1.4,1.3.9,1.5,1.3-.7-.7-1.8.2-1,2.3-2.7.5-1.2v-3h2.1c0-.1.8,2.1.8,2.1l2.1.8,3-1.2h.7c0,.1,1.5,2.1,1.5,2.1l1.3-.3-1.6-3.7.6-1.9,1.4-.3,1,.9,2,.2-.5-1.9.5-3.3,3.1.3.9.8,2.2.4,1.2-.4,1.3-2.3,1.5-.6,3.6-.3,3.3.2,4.9-1.6v2.4l3.3,3.7,1.2.5,9,1.6,4.2.3,2.7.5h-.1v.3-.3h.1,0Z"/>
  <path id="lichtenstein" class="cls-1" d="M395.8,480.9h-1.3v-1.9l.5-1.6,1.2,2.6-.3.8h-.1q0,.1,0,.1Z"/>
  <path id="lithuania" class="cls-1" d="M593.5,344.5v1.9l-.7,3.3,4.1,1-1.4,1-.4,1.2h-3.8c0-.1-1,2-1,2l-.8.6-2.7.6-1.2,3.1.4,2.4-1,1.6-.5,2.1,2,.5.9,1.2v1l-2.1.2-1.8-2.4-1,.7-2.2.5-1.5,1.3-2.1-.2-.8,2.7h-1.9c0-.1-3.5,1.3-3.5,1.3l-1.7-.9-3.9.3-1.7.3-3-.4-.8-3.1-1.2-.9-4.7-2.3-2.4-.7-.6.6-1.4-2.1v-2.2l1-3.3-1.4-1.4-1.5-.6-.9-1.4h-6c0-.1-2.5-.7-2.5-.7l-4.1-1.5-2.1-1.3-1.9.2-.6-1.3.2-1.7-1.2-2.5-1.7-3-.7-4,2.9-1.8,3.8-2,4.9-1.5,6.2.5h4.5c0-.1,1,.8,1,.8l1.7-.7,5.1.5h2.4c0,.1,3.9,1,3.9,1l4.8-.4,1.8-1.4,2.4-.2,2.5,3,6.4,1,.9.4,5.7,3.3,2.7,2.2,1.6.7,2.4.5h0l.2.4h0Z"/>
  <path id="latvia" class="cls-1" d="M598.5,316.1h.9c0,.1.5,1.3.5,1.3l3.4,1.8.7,2.3-.8,1.7-.7,3.2,1.9-.3,1,.6.3,1.3,1.8,2.2,1.4.8,2,4.4-.5,1.2-.8.9-1.5.8-2.6,2.5-.4,1.8h-3.3c0-.1-3.1-.5-3.1-.5l-1.2.3-1.3,1.6h-2.9c0,.1-2.4-.4-2.4-.4l-1.6-.7-2.5-2.1-5.5-3.2-1.2-.6-6.5-1-2.5-3-2.4.2-1.8,1.4-4.8.4-3.9-1h-2.4l-5.1-.5-1.7.7-1-.8h-4.5c0,.1-6.2-.5-6.2-.5l-4.9,1.5-3.8,2-2.9,1.8-.6-2.4-.6-5.8v-2.9l2.1-1.7.8-1.3.6-4.7,2.6-3.8,2.5-.4,3.3-1,3.7-.9,1.5,2,5.1,3.1,1.3,1,2.4,3.6,4.6,1.9,3.3-.6,3.8-2.5,1-1.2v-1.2l-1.3-4.9-1.2-2.1v-1.4l8.9-2.9,1.6,1,1.2-.7,5.9,2.6,2.4.5.6.7,3.7,2.8,2.9,1.2,4.2-1.3,3.5.8,1.9.2h.3l.8.2Z"/>
  <path id="moldova" class="cls-1" d="M637.1,503.4l.9-.7-1.3-4.4v-2.7l.9-5-.5-3-1.5-2.4-1.8-3.8-3.1-2.2-1.4-1.8-2.2-1.9-2.6-3.4-1.6-1.4-3.1-5.1-2.6-3.1-2.6-1.7-2.2.3.2-.9,2.4-1.5.7.2h4.2c0,.1,1.3-.9,1.3-.9l.8.3,1.7-1,3.7,1,3.8,2.5,2.6.3.6,1.3,5.9.6,1.5,2,1.5,1,1.5-.7,1.5,1.5.6,2.4-.6,3.3.6,1.3,2.4,1.3,3,2.1v2.5l.9,2,2.1,1.4,2.2.8,1,1.7.2,3,3,1.8-.6.7-3,.4-1.3-1.4-1.7.6-2.2-.8-2-.2-2.2-1-2.6,1.7.5,2.2,1,1.8-.4,2.1-2.4,1.8v1.4l-2.6,3,.5,1.5-.4,1-2.1.2-.6,1.8-.5-1.4-2-2.4h0Z"/>
  <path id="macedonia" class="cls-1" d="M568.2,557.7l3.5,3.4,3.6,1.9,1.8,3.5.9,1-.5,1.8v4.4l-2.1.3-.2,2.2-3,1-3.5-.6-3.1.4-.8.3-1.8,2.6-2.5,1.4-2.4-.6-.9.6-4.8.3-1.4-1.2-1.7.2-1.4-2.5-1.3-1.2-1.3-2.3-.2-2-.7-2.1.8-.8-.3-2.2.5-2.7,1.8.3.5-.8.2-2.7,3.6-1.6h1l1.7,1.2,1.6-2,2.2-.4,2.3-.3,2.1-.9,2,.3,2.4-.8,1.5.7h0c0,0,0-.1,0-.1Z"/>
  <path id="montenegro" class="cls-1" d="M524.8,537.9l.4,1.3,2.7,1.8,2,2.1,3.1,1.7,2.2.5,5.6,3v1l-1.6.4-.2.7-2.1.4.9,1.6-.2,1.4-3.6,1.3-.8-2.2-1.2-.3-3.4,5.6-.8.3-2.6-.2,1.7,2,1.8.8.3.6v3.3l-2.2-1.3-.9-1.9-3.3-3-3.7-2.1v-1h-1.6l-1.3-2,1.2-1v-.8l-1-1.7-.6-3.1.5-.7,1.8-.2v-1.6l.4-1.8,2.1-1.8,2.4-.2-1.5-2.3,3.4-.5h0Z"/>
  <path id="norway" class="cls-1" d="M331.4,273.6v1.8c.1,0-.9-.1-.9-.1l-.7-1.2-.2-2.1.7-.5,1.2,2.1h-.1ZM329.5,262h-1.9l.3-1.4.9-.3.6,1.7h.1ZM363.6,228.5l-2.4-.2-1-.8,2.9-.8.7.5-.2,1.4h0ZM367.4,223.7l-.3-.9,2.8-.6.9,1-3.5.5h.1ZM396.8,206.3l-4.4.3-.3-1.2,2.2-.8h1.3l1.3,1.7h-.1ZM403.9,195.3l-2.1.3v-1.2l2-.3v1.2h.1ZM408.2,189.3v-1.2l.9-1.3,1,.4-.3,1.6-1.7.4h.1ZM411.4,163.2l-1.6.7,1.2-2.7,1.2-.7.4,1.6-1.2,1.2h0ZM420.4,157.7l2.4.2-.5.8-1.5.3-1.2.8-2,.2-2,1-1.7.3-.4-1.3.9-1h1.4l1-1.3,3.5-.2h0v.2h.1ZM433.4,148.3l2.3,2.2-.3,1.6-1.3.7h-3.5c0,.1-1.7-.8-1.7-.8l-2.3.6-1.7-1.2,1.7-1.5,2.7.4.5-1.8,1.8.3.4-1.6,1.3.9h0v.2h.1ZM440,153.5l1.4-1.2,1.6-.4.6-2.3,1.9-.5,1.7,1,.9,1.3-.2,1.2-3.3,1.3-2.6,2.1-1.7-.2-.7.7-2.5.6-1.8-.9-.9.9-1.5.4-1.3-.4-3,1.6-2.9.3-1-1.2,3.3-2,5.3-.6,3-2.4.4-2.6.6-.9-1.4-.6.2-1.8,2.5-1.8,1.4-1.5,1.6-.3.9,1.2-1.2,1.5-1.7,1.3,1.2,1.6.6,2.5-1.5,2.3h0v-.2h.1ZM456.2,139.1l1.5.8,1.6-.3,2.4.7,1,1.6-1.3.9.4,1.8-4,.5-.9-.5-1.6.9-1.5,1.5-2.3-.6.2-1.7-.3-2.4.7-.5,3,.3-.4-2.1,1.4-.9h.1,0ZM586.3,136.4l-1.9.4.2-1.9,1.7,1.5h0ZM489.4,132.4l-1.4.4-1.9-.3-.7-1,2.3-1,1.8.3v1.7h-.1,0ZM473.5,132.7l1,.7,1.6-.5,1.2,1-1.5.8-.8,1.3h-2.1c0,.1-3,2.5-3,2.5v.8l-5.3.5-1.6-.3,1.8-2.8h1.8l1.8-.8-.3-.8,2.6-2.1.6-1.8,1.5-1,.8,2.5h-.1ZM478.6,130.6l1.5.2,1.4,1.7h-2.4l-2.1-1.9h1.7-.1ZM517.7,126.1l.5,1.2-3.5,2.2h-1.7l-2.2-1.2v-.8l2.1-.9h.9l2.8-1.4.9.9h.2ZM521.8,125.8l-1.9.5-1.8-.9-.2-1.7.8-.3,3.4,1.3-.3,1.2h0ZM515.1,122.5l-.4.8-2.8,2.2-2.3.7-1.9-.3-.8.6h-2.1l-2.1-.6-2.1-1.3h3.7l.6-.6h1.6l2.9-.4,1.2.3,2.2-1.5h2.4,0q0,0,0,.1ZM578.2,146.8l-1.4-1.1v-.7l3.4-3,.7-1-2.7-2.8-3.8-.8-4.4-1.2-4.4-2.1-1.9-1.3-3,.3-3.7,1.7-.9.2-4-.4-2.2.2-1.8,1.9-2.7,1.8-.7,4-.6,1.8.7,3.4-1.6,1.5-2.2.3-1.7,1.4-.5,1.8-1.4.6-2.7-.8-4.1-.8-3.8-1.2h-1.6c0-.1-1.3,1.2-1.3,1.2l-3.9.9h-1.9c0,.1-.8-.4-.8-.4l-7.2-.6-1.5-1.9-8.3-5.8h-3.8l-2,1.2,1,1.5-.5.6-2-.4h-2.2l-.5.4-5.3.2,2.7,1.7v2.1l-1.4,2-1.7.9,3,.9-2.6,1.7h-1c0-.1-9-1.9-9-1.9h-3c0-.1-4.3-1-4.3-1l-2.2.5v.8l.8,3.8-2.2,3.3-6.6-1.9-1.6.9-3.9,2-1.6,3.7-1.2,1.2-2.8.6-.5,1.2,2.8,2.4,1,1.4-.2,1.5-1.6,1-3.5,3-3.1,3-1.4.9,1,2.6-3.5,1.6-2.5.5-4,.4,1.5,4.1-.6,2.8v4.9l-3.6,5.2-4.6,5.2,4.9,1.7,1.2,3v1.3l-1.7,2.3-7.4-.9-3.5.4-3.5,1.6-3.7,4-1.3,1,.5,1.6-2.1,2.9,2.8,4.3-1.2,1.2.6,2.9v1.9l2.5,4.6v1.7l-.9,6.7,4,2.2,1.3.4,3.6,2.8-.4,2-1.4,2.6h-2.5l-1.9.6.3,1.7,3.3,5.1.5,1.5-.6,2.2v2.9l-2.1,2.1-1.4.8-2.7.7-.9,2.5-1.6,1.6,1.7,4.6-.6,4.1-.7,1.5-2,.2-1-1.9-.4-1-6.3-1.3-2.4-3-.4-3.3-2.6,1.3.6,1.2v2.4l-2.6,4.1-1.2-.2-1.4.8-1.4.2-.6-1-1.2.2-.8,1-3.6,1.4,1,.7-1.8,1-.6.9-2.8,1.6-4.5,4.1-2.4,1.2-1.7,1.3h-1.5l-1.9.9-4.8.9-3.3-.4-2.2.4-1.2-.7v-1.2h-1.3c0-.1-.8,1.2-.8,1.2l-1.7-.4.7-2.5h-3.3c0-.1-4-1.8-4-1.8l-.9-.8-3.3-1.4-1.5-1.5-.8-1.7.3-3.8.6-.5,2.8.8,2.9,1.4v-1.3c-.1,0-2.6-1.7-2.6-1.7l.8-1.9-.2-1.7,2.7-2.2-.4-.7-3.6,2.1-3.3.9-1.2,1.3-1.2.6h-2.2l-.5-.9.5-3.5,1.3-2.8,1.9-1,3.6.7,1-1,1.4-.2,2.5-1.3-4.3.5-1.3-1,2.9-2.5,1.3-1.5.3-1.6,2.3-1.8,1.9-.8,1.7.6,1.6-2-5.2,1.2-2.1,1.2-2.8,2.9-.2,1.2-2.1.9-1.6,1.6-.6,1.3-2.9,2-1.5.3v-2.5l1.2-2.1-.3-1.7,3.4.2,1.9-1.3h-2.8l-1.5-.7-1.3-1.6-.6-2,1.2-1.9-2.3-2.1-.5-2.3v-2.6c-.1,0,.8-.5.8-.5l2.2.4,2.5-.2,5.5-.9,3.6.6h1.5c0-.1,2.1-.8,2.1-.8h2c0-.1,2.3,1.2,2.3,1.2l.7-.5,5.7-1.3-3.1-1.6v1.5c.1,0-3.7.3-3.7.3l-3.4-.6-1.4-.6-.5,1.4-1.2.3-3.6-.5-4.9.3-2.2.7h-1.5c0-.1-2.6-1.4-2.6-1.4l-.9-.9-.3-2.7,2.9-.3-2-2.4-2-1.4-.2-1.5.7-1.4,1.6.2h4c0-.1,6.3,1.5,6.3,1.5l5.1-.3-.8-.6h-3l-7.6-1.4h-2.3c0,.1-1.3-.2-1.3-.2l-.7-1,.4-2,1.2-.4,1.3.6,2-2.4,2-1,2.1-.5,2.1,1h1.4c0-.1,4.2-.9,4.2-.9l-1.4-.5-3.7.5-.2-.5,2.5-2.4,4.4-.4,6.2.5,2.4.8.4-1.9,5.6-1.5-7.1.8-1.9-.5-5.1.7v-1.4c-.1,0,2.3-2.4,2.3-2.4l4.3-.9,2-1.2,3.3-.2,2.7.3,1.3,1.4,4.6,1.8-5.3-4.2,1.2-1.8,3.5-.4v-1.7l-2.3-.3v-1.3l2-.9,2.9-.7,3.4.8-.6,1.4.9.5,1.8-1.6,4.1-.8,2.9,2.2.5,1.2,1.2-.5,2.8-.5,2.8.3,1.9-.2-1-1.4.4-1,2.5-1,1.8-.3,2.7-1.3-.8-1-1.5-.3,3-1.6-1.8-.6-2.5.9-1.7.9,1.6,1-1.2,1.2-6.4,2.9-3.1.8h-1.5c0-.1-2-2.7-2-2.7h-2.2c0-.1,1.4-2.4,1.4-2.4l1.7-.8,1.5-2.4,2.4-1.4,3.4-3.5,2.9-1.2.9-1.2,3.1-1.6,3.1-.9.3-1-2.8.9.4-2.2,1.5-1,7.1-2.9,1.7,1.4,2.2-.2,2.4-1.7-.3-.7-2.2,1h-1.6l-.4-.6-2.2-.5-.3-1.3,1.4-2.9,3.6-3.5.5-1.4,1.4-.7,1.8.2-.2-1.2-2.2-1.2,6.5-1.2h3.1l2.5-.9.5-1-6.7,1.2h-2.5c0,.1-.8-2.7-.8-2.7l.2-1.6,2-2.3,1.5-.2,1.8-1.2v-1.6l2.5-.8,2.2-2.2,2.4-.5,1.5.2,3.1-.7h6.9v-.7l-6.6-.3-3.7.2-.4-.6,2.9-2.8,2.1-1,1.8.2,1.9,1,.6-.8-1.7-1.6.7-1.6-2.7,1.2-1.9.3-.9-2.1,2.4-2.1h2.4l.3-1.6,3.5-1.4,2-.2,1.6-.6.6.4.9,2.4,1.6.3,1-.8-1.4-1.2-1.2-1.9,2.1-1.6,2.4-.2,2.7.7,2.4-.2.9-1.3h-6.6c0-.1-.8-1-.8-1l1.3-1.3,2.3-.8h2.6c0-.1,2.5-1.6,2.5-1.6l.9-1.2.3-1.7,1.5-1.4,4.1-.8-.6-2.3.8-1.5,1-.6,2.2,1.6,1.9.5-.5-1.5.3-1.3h2.2l1-.5.3-1.4,1.5-1.3,4.9-.7.5,2.6.7,1.5.8-2.9,1.7-2.2,2.5-.9.9,1.2-.4,4.5-2,2.5,1.6-.2,2.6-2.4.6-1.3-.7-2.9.6-.8h3.7c0-.1,2,.3,2,.3l.7-1.6h1.8l1.9.8,4.3,1.5-1.4-2.3-1-.8-2.2-.5-2.3-1,1.3-1,2.5.3,2.1-.8,2.3-.2,1.2.6.8-1,2.6-.5,2.9.9,1.7,2.8,2.5,1.5v-1.5l.5-2,2.4-2.1,2.2-1h1.5l3-3.7-1.7-1,3.5-2.4h1.2l5.7,2.1,1.6-.9,3.6.8-.8,1-3.3,3-.5.8v2.3l-1.4,1.5.8,1.5,1.7-.4,1.9-1.4v-1.4l4.6-3.9,2-2.2,2.4-1.8,1.6-.3.9,1.2-.2,1.6.2,4.5,3.9-1.5,1.2-3.1,1.2-.7-.8-1.5.4-1.2,2.4-1.4,2.3.4,3.5.3,2.8.8.2,1.5-.8.9-3,1.2.7.7,2.1-.6.9,5.8.9-2.2,1-.7v-1.6l.9-2,1.9-1.4h2.8l3.5,1.8,2.6.3,1.9.8,2.5-.7,2.1,1v1l4.1.3,4,1.7.6,1.7-4.6,1-1.9,1-3.5.4-12.1-.7.4.7,8.7,1.6.6.5.4,2.2,1.9.7,3.7-.2v-1.4l3.4.6,4,.2,1.2,1.8-.3,1.6h-2.5c0,.1-4.4-1.4-4.4-1.4l-.4,2.4-1.2.9-6.1,1.4-1.6,2.2-1.4,1.4h0ZM536.2,118.1l3.9.5,2.3,1.5-3.8.5h-1.8l-2.1-2,1.5-.5h0ZM179.9,122.1v-1c-.1,0,4.6-1.6,4.6-1.6l2-1.5,3.6-.5-.2,1.9-3.1.8-3.5.5-3.4,1.4h0ZM462.3,74.9l-1,.5-2-.8-.8-1.3h3.1l.7,1.6h0ZM472.4,22.4l4.1.2,2.1,2,1.5,2.1,1.4.2,4.9-.4,3.6.7-1.5,1.2v1.3l5.8,1.4h1.9c0,.1,3.1-.3,3.1-.3l6.8,1.8-6.9,1.2-2.1,2-3.9,1.4h-2.7l-2.4,1.4h-2.3l-1.6-1.9,2.3-1.4-3.3-.4-1.3.5-11,1-1.2-.2-.9-1.3,2.9-.6.2-1.2,2.6-2.5-5.8-1.7-2.1-1.3-.8-1-2.6-.9v-1h-1.8c0,.1-.4-1.2-.4-1.2l11.3-.9h0v-.2h0ZM520.8,21.8h-1.4l-2.7-.8.7-1,3.4,1.9h0ZM376.5,22.2l3.7,1.6,2,.5,2.4,1.6-.7.9-2.1-1.3-3.8-1.4-2.4-.2-3.5-2.6-1.6-.8-.8-1.8,3.8.7,1.7,1-.3.8,1.7.8h0v.2h-.1ZM539.7,18.6h2.8v.7l-7.7-.4-4,.7.4-.9,2.5-.6h3.9c0-.1,2.1.5,2.1.5h0ZM424.4,7.3l1.5-.6,5.7.8,2.6.9,1.4,1-2,2,1.8,1,3.4-1.8,2.8.3,1.8.9,1,1.2-.2,1.5,3.3,1.2,3.6-.2,2.5.3,1.6,1,2-.2.2-.8,2.7.2,3.1.8-2.2.9,2.2.8,3.6.6,2.2.6-1.6,1.5h-3.4l-3,.3-5.7.3-3.1,1.7-2.6,1.9-.4,1.7.6,1.2-1.6.5-3.5.2.2,4.1-.8,2-3.5.3-1.9,1.2-1.3,2.2-2.2,2.1,1,1-2.2,2,1.3,1.9-1,.6-2.2.3-2.3-.3-2.4-1.2-7-2.3-4.5-2.5-6.3-1.4-3.5-1.7-1.6-1.4.3-1.5,2.9-.2,3,.7,1.8-2,11.9-1.2,7.7-.2-2-1.4-7.2.7-4.5-.2h-2.2c0,.1-2.2.7-2.2.7l-4.5.5h-4.8c0-.1-3-1.2-3-1.2l-1.4-2.1,1.3-.6h4c0,.1,6.7-.8,6.7-.8l3.1-.8h3.3c0-.1-.5-.9-.5-.9l1.9-.4,2.5-.2h5.9c0,.1.2-.5.2-.5l-2.7-.6-.9-.6,2.7-1.9h-2.3c0,.1-3.1,1.5-3.1,1.5l-1.9.5-4.8.3-1.8-1.7.9-1.3-.8-.7-1.4,1.4-2.2.3-2.1-.9-2,.5.7,1-.6,1,2.1.9-2.4.6-2.2,1.2-4.1.2h-4.7c0,.1-4.8-1.6-4.8-1.6l-2.3-1.3-1.9-1.3-2.8-.6-1.8-.8-.4-1.2-1.5-.7-.7-1.3h4.6l-1.8-1.9.5-1.7h-3.6c0,.1.4,1,.4,1l-2.3,1-1.3-.2-2.4-2-2.5-2.5.4-1.4-1.3-1,1.6-.7,2.6.9.8-.7,4-.4,4.8,1.2.4-1.2,4.4.5,3.1-.6,5.2-.3,2.1.4-1,1.2-6.6.3-4.2,1.4,6-.2h1c0,.1.6,1.3.6,1.3l3.1.5,2.4,1,.8-.5-.6-2.3,4.6-2.4,2.2.4,2.2.9,4.2,3.1,2.4,2,6.4,2.9-.7-1.6-4.4-4.7-.9-1.8.9-1.8,1.2-.5-.4-1.4,1.4-.5,2.5.3,2.7,1.4h0v.7h0ZM565.7,4.9l-8.4.4-.9-.3,16.5-1.5,1.8.5-8.9.8h0ZM441,2.9l-1.9.6-3.4-.5.9-.7,4.3.6h.1ZM460.5,3.4h5.9l1.6,1,5.8,1.2.8-1.6-.6-2.3h2c0-.1,1.8-.7,1.8-.7l3.3.3.2,1.4-.5,1.5h2.2l2.9-.2,2-1.2h2.5l1.4-.5,1.5.6,8.6.7,3.5.6h5.5l3.9.2,2.9,1,1.2,1.8-.9.4-7,2.1-1.7.7-2.5,2.4-4.3.7-3.7-.3-3.1.7-2,1-1.6.2-9.6-.4-2.3-1.2,1.3-.9-8.6.3h-9.6c0-.1-1-.6-1-.6l-5.9-.5-4.4-1.2,1.2-.5h6.1l-.7-1.6h-3c0-.1-1.9.3-1.9.3l-4.5.2h-4.2c0-.1-2-.4-2-.4l-4-1-.7-.8,2.9-.4,2.2-.7-4.7-.3-2-.3-.6-.9,6.2-.2,5.2.8-.7-2.3,4.1,1.2.2-1.2-2.1-1.5h2.1c0-.1,4.7.6,4.7.6l5.3,1.7h-.6,0Z"/>
  <path id="poland" class="cls-1" d="M550.4,365l.6-.6,2.4.7,4.7,2.3,1.2.9.8,3.1,2.2,5.3,3,5.1,1.8,3.8.9,4.1-.6,1.7-4.2,1.8-.8.5-2.1,2.8v1.3l3.5,1.4,1.9,1,.8,1-.2,2.5.4,1.2-.8,1.6v1.4l1.2,1.7,1.3,1.9v1.4l2.8,2.9,2,2.9,1.5,1-1.3,1.4,1.9,2.7v1.4l-1.2,1.9-3.1.5-5,4.8-2.5,2.8-3.6,4.6-.6,1,1.6,4v1.9l1.9,1.5-.4.9-3.5-.7-.9-.2-6-2-.8-1.5-1-.7-3.3-1-3.8-.3-3.4.2-1.5,1.6h-1.9c0-.1-2.5-1.2-2.5-1.2h-3.1c0,.1-2.4,1.2-2.4,1.2l-1.2,2.2-1.8-.6-1.5.4-.6-2.8-1.5-.4-3.1-3.1-2.3,1.4-1,1.8h-2.3l-.5-1.6-1.4-.2-.5-1.7-2.9-2.3-.5-1.9-2.8-.8-.5.2-3.7-1.9-1.9,1-1-.6-2.8-2.4,1.5-.5v-1.7l-3.8.7-3.5-2-2.3-.6h-1.4l1.8,2.5-3.7,2.6-1-.4-1.6-2-2.1-1.9-1.7-.9,1.7-1.3.7-1.2-1.9-1.3-3.4.7-.8-.9-2.8-1.2-4.8-1.2-1-1.2-.3-1.2-3.5-.8-.2,2.2-1.9.2,1.7-3.8.4-2.4-1.7-3.4-2.3-.9v-1.7l-2-3.3.8-1.2.7-2.7-.8-2-2.1-2.4.6-2.7-1.5-1.8-3.5-2.2-1.7-1.5.7-1.7,2-1.9.3-2.8-1.9-4.3-.7-2.7,2.9.9.7-.5v-1.9l-4.4-.7v-1.3l2,.4,4-1.5,6.8-1.9,7.2-1.8,3.5-.5,2.1-2.3,2-1.8,4-.7,1.4-.8,2.9-1.3,6.9-1.3,5.8-.4,5.7,2.4-.9.3-3.1-1.3,2.3,3.7,1.2,1.3,2.1.9,1.8.3,5.1-.5,2.3-1.2h.5c0,.1,6.9.5,6.9.5l24,.9h7.3v.7h-.1Z"/>
  <path id="portugal" class="cls-1" d="M172,641.8l-1.3.2-4.7,2.6h-1.4l-2.6-1.2-4.7-.4-1.6-.3-1.9.7h-1.6l-1.2,1-.8-.3,1-2.2,1.7-4.3v-2.7l.4-2.3-.3-2.2-.7-1.5,1.2-3.7v-1.9l-.9-2.4,2.9.3-1.8-1.5h-1.6l-2.4.9h-1.6v-1.4c.1,0-.4-1.9-.4-1.9l2.1-.6,1.7-1.8-.3-1.7-1.3,1.2-.6,1.5-2.9.7-1.6-.5v-2l.6-1.8.4-2.4.8-2.3-.2-1.5,1.7-1.4,1.5-2,4.5-9.3-.6-1,1.8-6.9,1.3-2.4.6-4.5-.2-2.1-.7-2.1-.7-4.5v-1.5l-.9-1.9v-1c.1,0,2-2,2-2l1.3-1.2,1.6-.7,4.7-1.2,1,1.9-1.4,2,.9,1.4,3.1-1.3h3l2.3.8h1.5l2.6-.9.8-1.5,1.6.6h5.5l.8,1.2v3.3c.1,0,2,.2,2,.2l2,.9.3,1.1-2.6,2.7-2.2,1.2-1.7,1.5-1.2,1.7-2.1,1.7.8,2.1.4,3.7-.4,4,.4,1.2-2.8,2.2-.2,1,1.5,1.4v2l-1.8,3.7-1,.5h-4.5l-1.2.3,1.2,2,1.5,1.3.3,2,1.7,3.4,1.8.4.5.8-.6,2.5-3.4,3.1-.9,4.2,3.1,4.5,1.8-.2-.7,2.5-2.2.6-3.7,4.5-.8,2.3,1.2,6.7-.5.2h0Z"/>
  <path id="romania" class="cls-1" d="M639.8,507.5l1,1,1.9.9,4.2.9.6-1.3.9.3,1.7-.5,2.3-1.4,2.3-.2,2.3.7,2,1.9-.2,4.5-.7,2.2-6.5,1.4.4-.6-.7-2.1-1-1-.9,1.2.6,1.8-.7,1.5-.2,2.5.6.9-1.7,2.1-.5,1.4.8,5-.4,3.9h-2.1l-2.7-.5-2.3-.7-2.6-2.7-1.8.5-.9-.6-3.4-.4-4.7-2.4-3,.4-4.6.9-3.4,1.3-3.5,2.2-1.3,1.7-1.7.9-2.4.6-4.4-.2-10.1-2.1-2.6.5-3.5-.4-5.8-1-4.1-.3-3.9.5-.9-1.8,1.9-2.1-4.4-2.5-.7-1.1-1.7-.9-.5-1.8,2.6-1.9-3.1-1.7-1.8.5-1.8,1.9-1.4.2-1-1.3-1.6-.7-3.7-.7-1.6-1.3-2.2-.6.2-.6,1.9-.8-2.4-1.2,1.6-2.1-.9-1.2-2.7-.8-4-2-2.3-1.9-.4-4.3-.8.2-1.9-2.1-3-1.8-1.8-2.1,2.9-.9,1.5.5,2.6-2.1,2.7.3,1.4-.9,1.6-4.9,2.2-1.6-.2-1.4,1.7-2.8v-1.3l1.5-1.6.7-2.6,1.4-1.5v-1.8l1.3-1,2-2.5,4.8-1.2,2.5-2.8,2.2-.9.9-1.3h.7l2.8,1.5h2.8c0-.1,7.2,1.5,7.2,1.5l3.8-.7,1.3.3,4.5,3.5,2.2-.5,1-1.3,3.6-1.4,8.8-1.3,1-1.7.3-1.5,3.9-1,2.2-.4,2.6,1.7,2.6,3.1,3.1,5.1,1.6,1.4,2.6,3.4,2.2,1.9,1.4,1.8,3.1,2.2,1.8,3.8,1.5,2.4.5,3-.9,5v2.7l1.3,4.4-.9.7,2,2.3.5,1.5.3.3h0Z"/>
  <path id="serbia" class="cls-1" d="M534.5,496.2l1.8,2.1,3,1.8,1.9,2.1.8-.2.4,4.3,2.3,1.9,4,2,2.7.8.9,1.2-1.6,2.1,2.4,1.2-1.9.8-.2.6,2.2.6,1.6,1.3,3.7.7,1.6.7,1,1.3,1.4-.2,1.8-1.9,1.8-.5,3.1,1.7-2.6,1.9.5,1.8,1.7.9.8,1.3-.9.7-.2,2-2.2,1-.4,2.4.6,2.5,2.5,4.1,3,1.6,1.4,1.7,1.7,1-.3,1.5-1.7,1.8-1.2,1.7h-1.9l-1.2.7v3.5l1.5,3-1.2,1.8-1,.3-1.5-.7-2.4.8-2-.3-2.1.9-2.3.3-.6-1.4,1-.9,1.3-3.4.2-1.3-4.9-1.3v-1.4l-2.3-1.3-.2-.7-2.4-2.2-2.9-1.4-1.2-1.4-1.8.9.6,1.7-.4,1-1.8,1.4v1.5l-1.6.5v-1l-5.7-3-2.2-.5-3.1-1.7-2-2.1-2.7-1.8-.4-1.3.7-.8,2.6.3.2-2.3-3.4-3.9.5-.8h3.3l.3-.7-3.5-3-2.5-1.3-.5-.8v-2.7l1.8-2.8.5-2.6-1.3-.8-2.8.4.7-1.4-.7-2.7,1.8-.4h2.4c0-.1-.9-1.7-.9-1.7l-3.1-1-1.3-1,.4-2.1-1.4-.4-.2-1.7-1.7-2.8.7-1.6,2.2-1.4,1.7.5,2.3-1,1.6-1.7,1-.3,3,.4,1.2-.2,2.9.3,1,.5h.4,0Z"/>
  <path id="slovakia" class="cls-1" d="M558.8,448.6l-1.6,3.1-.8,3-1.7,1.8v2.6l-4.4,1.2-.6-.2-2.3-2.3-1.5-.9-4.8.7-2.6-.6h-2.8c0-.1-1.9.3-1.9.3l-1.7,3.7-5.2,2.6-3.7-1.5-.7.2-1,1.6-2.5.6-4.5.4-1.5.7-.4,1,.5,1.4-.6,1-7.3.4h-4.9c0-.1-1.7-.8-1.7-.8l-4.4-2.8-2.2-.3-2.4-3-1.7-3v-.8l.8-2.5,1.2-2.9,1.5-1.3,3.8.5,1.8-.2,1.6-.7,2.2-2,1.7-.8.7-3.1,2.4-1.3.6-.8,2.1-1.6,2.9-.3,1.4.2.5,1.6h2.3l1-1.8,2.3-1.4,3.1,3.1,1.5.4.6,2.8,1.5-.4,1.8.6,1.2-2.2,2.4-1h3.1c0-.1,2.5.9,2.5.9h1.9c0,.1,1.5-1.5,1.5-1.5l3.4-.2,3.8.3,3.3,1,1,.7.8,1.5,6,2,.9.2h-.2c0,.1,0,0,0,0h0Z"/>
  <path id="slovenia" class="cls-1" d="M483.2,489.3l-.9.8v1.8h-2.1l-.7,1-4.6,1.8-.4,1.5.9.9.2,2.3-.4,1.2-2.2.6-2.2,1,1,1.2-.7.7.8,2.4-1.3.4-1.7-.2-2.1-.7-1.4.5-1.6-.7-2.7-2.2-1.3,2.3-.6.3h-3.8c0,.1-1.2-.4-1.2-.4l-1.5,1.4-4.7-1.1h0l2.5-1.5h1.6c0-.1-.2-1.5-.2-1.5l-1.6-1.4-2-1.2.4-2.1-1.4-.2-.3-1,1.7-2.2-2.4-.7-.7-1.5,3.5-2.4.2-.9,5.2.9,5.2.7,3.1-1.3,1-1.4,2-.7,2.7-.2,2.9.2,2.4-1.2,1.7-.2,2.5.5v-2l1.5-.9h2.5c0,.1,1.5,3.6,1.5,3.6l1.8,2-2.1-.2h0Z"/>
  <path id="sweden" class="cls-1" d="M471.1,334.4l-1.6-.3-.3-4,2.1-4.8,1-.3,2.8-6.8.5,2.1-1.6,3.4-.3,2.3-.6.5-2.1,8h.1ZM498.6,310.6l-1.4,1.5-1.5.5v3.5l1.7,1.3-1.4.5-.7,1.9-1.9.6-1.6,1.7-.3,1.7-2.2.9,1.3-2.5-.9-.7-1.5-2.2.4-.9-.6-3.4,2.8-3,1.4-1.2,3.5-1h1.4l1.6.9h-.1,0ZM536,192.1l-1.6.2-2.3-.6-1,.3-4,.3-1.2.7-2.2-.7-2.1-1.3-2.1,1.2-1.7-1-1,2v1.9l-1.8-.2.3,1.2-2.1,1.6-3.4.2.7,1.6-.9.7,1,1.8-1.4,1.6-2.2,2-.5,1,1.8,1.2,1.7,2.6,1.7,1.2-.4,1.3-2.2,1.2-2.3,1.8-2.1,4.5-3.3,1.4-2.5,1.7-3.1.7-2.5,2.3-1.9-.8-1.6.5-1,1.9-2,1.6-2.5-.2.2.8-2.4.3-1,4.2-2.3.6-.7.8-.9-.6h-2.2c0,.1,1.7,3,1.7,3l-1.8,1.9h-1.3l-1.6.7-2-.8-.2,1.3.8,1.4,1.4,1v1.4l-1,4.5.7,1.9-2.2,1.3-.8,1.2.6,1.8v1.2l.6,2,.8,4.4,1.2,2.1v1.7l1.3.9h2.2c0-.1,1.5,1.6,1.5,1.6l3.3-.8.8,1.2,3,2.3,1.8.3,2,1.3v1.6l3,1,2,2.1.8,1.7v1l-2.8,1.6-1.4,1.4-4,2.2h-.6c0-.1-2.2.9-2.2.9l2.1.6,1.5-.7,2.7-.6,1.5,1.3-2.3.5-.3,1.7-.8,1-2.1.7-2.9,1.6-4.2,1.5-1.2,1.3-2.7,1-1.4.8h-7.9c0-.1,1,.8,1,.8l.9-.2,3.8.4,1.8,1.4-3.1.9,1.8,3.4-.7.8.4,3.7h-1.2c0,.1-.3,1.6-.3,1.6l.6,2.6,1,2.2v1l-1.7,2.5.9,3-1.6,5.6-2,3.3-1.4,4.3-1.9,1.5-2.5-.9-3.6.5-3.4-.3-3.1.2-.8.4.7,1.5-2.4-.2-1.8,1.2-2.1,2.2v1.6l2,3.1-1.8,2.1h-1.2l-3.4-.5-5.8,1.3-5.3-1,.5-1,.2-3.3-.6-1.8-1.4-1.2-3.3-4-1.3-2.4,2.5.9,1-.5-1.9-2.7h2.3c0-.1.7-1.2.7-1.2l-.6-1.6-2-.6-2-2.5-1.9-1.3-3.7-4.9-1.4-3.4-1.2.3-1.3-3.9-1.8-.6-.6-3.9-1.9-.4-1.4-1.8-.4-3.4-1.3-.6-.8-1.5-.8-3.1-.3-2.8-.9-1.9.5-1.3,1.2-.2,1.2.8,1,1.9,2-.2.7-1.5.6-4.1-1.7-4.6,1.6-1.6.9-2.5,2.7-.7,1.4-.8,2-2.1v-2.9l.7-2.2-.5-1.5-3.3-5.1-.3-1.7,1.9-.6h2.5l1.4-2.6.4-2-3.6-2.8-1.3-.4-4-2.2.9-6.7v-1.7l-2.6-4.6v-1.9l-.5-2.9,1.2-1.2-2.8-4.3,2.1-2.9-.5-1.6,1.3-1,3.7-4,3.5-1.6,3.5-.4,7.4.9,1.8-2.3v-1.3l-1.3-3-4.9-1.7,4.6-5.2,3.5-5.2v-4.9l.7-2.8-1.5-4.1,4-.4,2.5-.5,3.5-1.6-1-2.6,1.4-.9,3.1-3,3.5-3,1.6-1,.2-1.5-1-1.4-2.8-2.4.5-1.2,2.8-.6,1.2-1.2,1.6-3.7,3.9-2,1.6-.9,6.6,1.9,2.2-3.3-.8-3.8v-.8l2.2-.5,4.3.9h3c0,.1,9,1.9,9,1.9h1c0,.1,2.6-1.6,2.6-1.6l-3-.9,1.7-.9,1.5-2v-2.1l-2.8-1.7,5.3-.2,2.9,1.1.4.9,3,1.2,5,2.4,4.4,1.9,8.7,1.8,3.7,1.9,1.3,1.8h1.5c0,.1,2,1.6,2,1.6l1.9.9-1.2,1,.4,2.5.7,1.5-.3,2,2.9.4.6,1.4-1.2.8v1.2l.8,1.7,3.5,2.7.6.9-.6,1.5v1.9l-1.6,1.4v1.4l1.4,2.7,1.9.6,2,2.3,1,1.5h0Z"/>
  <path id="turkey" class="cls-1" d="M657.9,575.1l-8.5-3.5-2.1-1.5-2.4-2.8-1-2.1v-1.9h0l-1.6-.2-.9.4h-1.9l-1.6.6-3.6-2.6-3.7.3-1.6,1.2-3.6.4-1,2.3-2,.3-.3,1.5,1.3.3,2.4,1.6.9,3.3-3.6,2.6.5,4.6-2.6,3.4-.8.4,1,1.9h3.5l5.7-.3-.7,1.4-3.5,1.7-2.4,2.1.3,1.8-.5,2.1,1.6-.7,1.6-2.3,3.7-3.9,2.6-1,3.5-2,2.1-2.5.6-2.2,3.3-.6,1.4.2,1,.2,3-1.5h1.7l6.7,1.7,2.2-.5.9-3.7-1.5-.3h0v-.2h-.1ZM817.9,575.7l-1.8.4-1.5,1.3-5.2,2.4-1.8.3-1.8-.5h-2.6l-5.5-2.1-7.3,1.4-3.8,1.4-2.3.2-6.5-1.3-2.1-1.3-4.5-.6-5-1.2-1.3-1.5-3-1.4h-1.8l-1.6,1.6-1.4-.2-1.9-.9-1.6-1.5-2.3-4.2-1.9-.5-4.6,1.3-3.7-1.5-2.7-2.7v-2.2l-2-.5-3.1,1.7h-7.3l-10.9-.9-1.3.2-4.2,1.8-5.2,1.5-2.9,1.3-2.5,2.2-7.8,4.4-1.2,2.7-1.2.7-5.9.4-6.4-1.9-5.6.8-8.1-1.3h-2.3l-.6.8-.3,2.7,1,1.2,2.1,1.5,1.5.6,6,.8-3.9.8-7.1,1.3-2.1,1.6,3.8,1.8-.5.5h-3.6l-1.5.2-4.6-.4-4.3.5v-1.9l-1.5-.4-1.3.4h-.5l.5.6,1.2,1-1.2.7-.3.2h-3.4l-2-.8-.8-1.3h-2.2l-1.4.9h-3.7l-3.1,3.3-1.8,2.8-1.8.6-.2,1.9.5,3.6-.6,1.4.3,1.7,3.3-.2,1.7-.6,4.5-.7,1.3.7-2.4,2.9-.3.8,2.6,2.8-.2,2.5,2.8,1.3-1.3,1.8-1.9,1.2,1.3,2.4,1.2,1.3,2.6,1.2-3,.6-3.8-.7-.3-2.3-1-1.2h-1.9v1.2l1,2-1,1.2-.5,1.5.6.6,3.5,1.5,1.3-.7,1.8.9,1.2,1.4h.8l4.1,1.3.4,1.6v2.6l-2.1.5,2.1,3.3.3,1.7,2,1,2.4,1.3.3,1.4-2.7,1-1,.4.4,1.7.6-.4.4-.3,4.4.2,6.3-.3,1.3.5-1.8,1.3-.9,1.4-.9.4-4.1.4-2.1.6,1,1h1.6l1.9-.9,3.9-.2-.8,1.4,1.4.4,1-.7,1.3-2h2.5l3.4,1.8,2.4.4,1.9-.3,1.4,2.8.6,2.1,3,2.2,4.8,1.7h1.3l3.9-1.5,2-.9,2.2,1,1.2-1.2v-2.3l.6-1.3v-4.4l.6-1.2,4.2.3,5.6.7,6.1,3.1,3.5,1.3,1.7,1.4,2.4,3,1.5,1.4,2.3,1.4,3.7,1,1.7-.9h2.3l4.6-.9h1l2.3-.5,3.4-1.8.8-.8,3.3-4.3,3.7-2.9,1.4-.5,1.5.3,2,1.2,3.4,1.5,3,1,1.9-.4,1.2-.8.3-1.3,1.8-.8,3-2.2,2.1,1.7.4,2.5-3.7,4.1-.7,1.6,2.6,5.1-.7,1.4h1l2.3,1.4.8-1.7,1.9-1.2v-2.7l3.5-1.5-1.9-3.3.3-4,.6-1.7,3.9.7,2,1.8h5l3.7-1.6,2.4-.8,3.6-1.7,3.6.6,3.7,2.4,1.2.3,8,.2,4.4-.9,4.3-1.5,1.9-1v-71.3l-.8.5h0l-.6-.2h0ZM619.4,591.6l-2.3.6v1.6l3.1-.5-.8-1.7h0Z"/>
  <path id="ukraine" class="cls-1" d="M686.5,494.2v.6l-4.1-.8-.9-.9,5,1.2h0ZM658.8,509.5l-2-1.9-2.3-.7-2.3.2-2.3,1.4-1.7.5-.9-.3-.6,1.3-4.2-.9-1.9-.9-1-1,.6-1.8,2.1-.2.4-1-.5-1.5,2.6-3v-1.4l2.4-1.8.4-2.1-1-1.8-.5-2.2,2.6-1.7,2.2,1,2,.2,2.2.8,1.7-.6,1.3,1.4,3-.4.6-.7-3-1.8-.2-3-1-1.7-2.2-.8-2.1-1.4-.9-1.9v-2.6l-2.9-2-2.5-1.4-.6-1.3.6-3.3-.6-2.4-1.5-1.5-1.5.7-1.5-1-1.5-2-5.9-.6-.6-1.3-2.6-.3-3.8-2.5-3.7-1-1.7,1-.8-.3-1.3.9h-4.2l-.7-.2-2.4,1.5-.2.6-3.9,1.2-.2,1.5-1.2,2-8.8,1.3-3.6,1.4-1,1.3-2.2.5-4.5-3.5-1.3-.3-3.8.7-7.2-1.5h-2.8c0,.1-2.8-1.5-2.8-1.5h-.7l-.9,1.3-2.2.9-.7-1.8-.9-.7-2.4-.4-.9-1.2-2.3-.8-1.5-2.4h-1.6v-2.6l1.6-1.8.8-3,1.6-3.1,3.5.7.4-.9-2-1.5v-1.9l-1.5-4,.6-1,3.6-4.6,2.5-2.8,5-4.8,3.1-.5,1.3-1.9v-1.4l-2-2.7,1.3-1.4-1.5-1-2-2.9-2.8-2.9v-1.4l-1.3-1.9v-1.5l1-.5,2,.3,1.2.5,2-1.3,1.7-1.7.8-1.5,6.2-.5,2.4-.5h2.5c0-.1,8.2.3,8.2.3l6.8,1.6,6.4.9h2.4l1.9,2.2,1,.3h3.1c0-.1,1.2.3,1.2.3l.8,1.5,1.3-1.8,2,.5,2-.7,5.3,1,.8,1.4,1,.3.6-1.2,4-1.7,2.6,3.1.6.5,2.4-.8,7.4-.6,2.1,1.2.5,1.3,2.8.9.8-1.5-1.9-3.8,1-3.5.8-1.3,2.3-2.4,1.2-.5,1.8.4,1.5-.8h5.2c0,.1,2.7.9,2.7.9h1.8c0-.1,1.9-1,1.9-1l.5-2.5,1.7-.6,3.9.9h1c0-.1,2.8-1.4,2.8-1.4l1.7-.2,2.1.3,3.6-.2,2.6,1.5,1.5,1.5,1.8,2.8,4.2,3.1v1l-3.1.5,1.4,2,.5,2.1,1.3,1.8-.4,1h3.3c0,.1,3,1.2,3,1.2l4.3-.5,1.6,2.3,2,.2.2.9,1.5,2.9.9,1.2-.2,1.9.5,1,2,1.7.7,1,1.2.4,2.4-1.5,2.9.4,2.8,2.1h2.4l1.8,1.2,1.5-1.4,4.5-.9,2.4-1h1c0,.1,2.4,2,2.4,2l.5,1.3,1.6,1.7,4.9,3,1.4-.6.9-1.6,2.7,1.5,2.5.2,3.8,2h1.5c0,.1,1.7-.5,1.7-.5l2.1,1.9,2,.2,4.6,2.4,3-.3,1,.8v1.8l.9.9v2.7l-1.9,2.2-2.4.8,1.2,1.6,3.3.9-.9.9-1.5-.2-.8,1-.3,2.4,2.6.7,1.3,2.9v1.2l1.3.3-1.4,4.9v1.9l-4.5.2-6.3-.3-.9.2-.9,2-2.4,1.5-1.8.2-.8.8v2.4l-.4,1.4,1.2.7-.7,1.7.5,1.4h-.5c0,.1-4.5-.1-4.5-.1l-3.6.3-2.2,2.5h-1.6l-3.4,1.6-1.5,1.8-1.5-.8-3.3.5-1.8,1.2h-3.3c0-.1-2.4.5-2.4.5l-4.8,4h-1.4c0,.1-1-.9-1-.9l-1.7,2.7-2.5,1.3.6,3.3,2.9,4.7,3.8,4.1,1.8,1.5,2.5.7,3.3-1.5,2.5.4,1.8-1.3h1.6c0-.1,3.9.9,3.9.9l-1.2,2.6-.3,2.7-2,.6h-2.3l-2.3.3-2.8-1.6h-2.6l-1.2,2-2.4,1.4-.6,1.5-2.7-.3-2.2.2-2.9,1.5-2,2.9-2.4,1.9-2,.5h-2.1l-1.4-.7-3-1.9.7-2.1.5-3.7-1.3-3-2.4-1.5-1.7.2-.9-.3-3.9-2.5-2-.2-2,.5-1.6-1.3,3.7-3,3.7-2.5,1.8-.2,2.2-1.3,2.3-1.7-1.4-2.4-2,.6-2.3-1.2-.9-.8-3.3.8h-1.9c0-.1-4,.7-4,.7l-2-.8-4.2-2.1-2.7-.3v-1l1.9-.3v-1l-3.9-.6v-1.4l2,.5,3.4.2,3,.5,2.2-1.9-2.5.5-3-.5-2.2-1.9-2.3,1.3-3.4-.5-2.5.8-2.4-.2-4.3,1.2-.4,3-2.1,4.2-3.3,3.9-4.8,2.2-1.8-.4-.9,1.2.2,1.4,1,.9,1.2,3.3v1.4h0v.2h0Z"/>
  <path id="kosovo" class="cls-1" d="M558,558.8l-2.2.4-1.6,2-1.7-1.3h-1l-3.6,1.7-.2,2.7-.5.8-1.8-.3v-2.3l-1.6-3.4-2-1.4-1.5-.5-2.1-3-.5-.4.2-1.4-.9-1.6,2.1-.4.2-.7,1.7-.4,1.6-.5v-1.5l1.8-1.4.4-1-.6-1.7,1.8-.9,1.2,1.4,2.9,1.4,2.4,2.2.2.7,2.3,1.3v1.4l4.9,1.3-.2,1.3-1.3,3.4-1,.9.6,1.4h0v-.2h0Z"/>
  <path id="netherland" class="cls-1" d="M325,411.6l-.6,1.3-3.4,1.6-4.1-1.2-1.3.6-1.3-.7-.3-1.4,2.9-.4,3.7.7,1.6-.6,1.3.5,1.5-.4h0ZM321.5,406.1l1.6,1.5-1.6.3-1.7-1,1.7-.7h0ZM332.5,385.1l-1.2,1.2-.6-1.5,1.8-1.5v1.8h0ZM325,411.6l-2.7-.8-2.3.5-2.9-.7-1.8-1.4,1.3-.7h2.4c0-.1,4.2.6,4.2.6l1.3-.9-.6-1-2.4-2.2,1.7-2.8,1.5-1,3.4-4,.9-2.1,1.3-5.8,1-2.1,1.5.5,2.1-.8,3.6-2.1,1-1.8,1-.9,4.2-1.7,2.2-.4,9.3-.5,1.9,1.8,2.8.6v4.5c.1,0-.6,1.8-.6,1.8l-1.2,4h-3.3c0-.1-.6,1.6-.6,1.6l.7,1,2.7.3.8,1-.6,2.7-2.7,1.7-.3.9,1,.9-.7,1-4.7,1.4-2.4-.8-1.9.7-.7,1.2,3.3,4.3v1.3l-1.4,2.9.7,1.3-2.3,1.7-.5.8,2,1.3-.3,2.5-4.4-.3-.7-1.2,1.2-1.4,1-3-2.7-1.2-1.8-1.4-2,.4-2.7-1.5-.5-1.7-2.6.8-1.2-1.4-1.6,1-1.6-.8-1.5.7.2.9-1.9-.4h0v.2h0ZM341.7,391.3l.4-2.6-2.9-.4-.8-3.4-3.8,2.2.8,1.9,1.7,1.7v.9l-2.2.7v2.7c.1,0-.1,1.7-.1,1.7l1.6-.6,3-2,2.8-2-.5-.8h0Z"/>
  <path id="spain" class="cls-1" d="M292,613.2l-.4,1-2.1-.4v-1.6l1.3-1.7,2.8-.7.8,1.4-2.4,2h0ZM314.7,599l1.3.5,1.4-.5,1.5.4.2,1-2.3,3.7-.6,1.5-2.2,1.4-4.2-1.8-.3-1.7-1.5-.7-1.8,1.4-1.5-1-.3-1.3,5.6-3.9,1.6-.9,3.4-.9.5,1.3-.6,1.7h0l-.2-.2ZM330.2,598.1l-.3.2-4.1-2-1.7-.4v-1.5c.1,0,2.8-.2,2.8-.2l2.2.7,1.3,1.9-.2,1.3h0ZM248.8,540.2l.5,1.4,4.5,1.4-.3,3.4,1.9-.4,4.8,1.5,2.3.2,2.3,2.2,3.8-.4,3.4,2.2,3.3-.4.7.4h4.9l.8-2.5,4.2,1.2,2.6,1,1.8.3,1.2,1.6v2.2l.7.4,2.9-1.2,2.9,1.3,1.4,1.3,2.2-1.2,4.9,1.3,1.3-.8,4-1.2,3.3.6,1.3,2.3-1.9.5-.2,1.5,1.3,1.4v2.2c.1,0-3,2.9-3,2.9l-9.1,4.9-3,2.8-6.9,1.6-4.7,1.6-2.3.5-4.3,4,1.2.3,1.3,1.3-.4.6-2.6,1.2h-.9l-3,4.8-2.7,3.5-1.6,1.6-1.6,2.2-3.4,5.9v1.7c-.1,0,1.6,5.8,1.6,5.8l2.3,2.8,2.5,1.2.6,1-.8,1-2.5,1.8-4.5,2.4-1.9,2-.3,1.9-1.4.8-.5,2.6-1.9,4.6,1.4,1.3-1.4.8-6.8.3-4.3,2.9-2.1,2.5-2,4.7-2.3,2.7-1,.5-1.6-1.3h-2l-2,.2-1,1-1.6.5-1.6-.5-4.8-.2-2.4.8-2-.5-3.4-.3-7.3.6-4.2,3.6h-3.6l-3.3,1.3-2.2,3.1-.5,1.7-1-.3-.3,1.3-2.2.8-2.5-1-2.1-1.6h-1l-1.7-2.4-1.3-3.3v-1.2l-1.6-.6-.3-1.5.2-1.7-1.3-2.1-5.2-3.9-3.9-.3-3.1.5-1.2-6.7.8-2.3,3.7-4.5,2.2-.6.7-2.5-1.8.2-3.1-4.5.9-4.2,3.4-3.1.6-2.5-.5-.8-1.8-.4-1.7-3.4-.3-2-1.5-1.3-1.2-2,1.2-.3h4.5l1-.5,1.8-3.7v-2l-1.5-1.4.2-1,2.8-2.2-.4-1.2.4-4-.4-3.7-.8-2.1,2.1-1.7,1.2-1.7,1.7-1.5,2.2-1.2,2.6-2.6-.3-1.2-2-.9-2-.2v-3.3c-.1,0-.8-1.2-.8-1.2h-5.5l-1.6-.6-.8,1.5-2.6.9h-1.5l-2.3-.8h-3l-3.1,1.3-.9-1.4,1.4-2-1-1.9-4.3,1-2,.9-1.3,1.2h-1.4v-2.7l2.7-2.7-1.7-.2,1.3-2-1-1v-2.7c.1,0-2.3.9-2.3.9l-.5-1.3,1.5-2.3-1.5-.2-2.4-2.6.8-3.3,2.1-1,2-1.6,2.7.3,1.8-.3,3.8-1.7-.4-1.6.4-.7,3.4-1.8,2.1-.2,2-.9,1.4.5h1.2l1.4.5,1.8,1.7,2.6.6,2.1-.5h5.6l3.4-.3h1.9l3-.7,2.4,1,4.6.4,2.7.8,7.6,1.5h2.8l3.9-.8,1.7-.5,1.6.3,2.2-.6,2.4,1,4.9,1.4,2.2-1.4,3.6.6,3.5,1.4h1.9l2.7-.2,1.6-.4h0Z"/>
  <path id="france" class="cls-1" d="M397.4,550.4l-.3,2.4,1,1.8.6,6.8-1.9,3.4v3.1l-1.6,4.5-.8,1.2-4-2.1-1.3-1.2,1-1.9-2.3-.9.4-1.8-.2-.9-1.7-.5,1-1.4v-.8l-1.6-1-.3-.9,1.4-1.2-.6-.9v-1.4c.1,0,1-2,1-2l1.3-.9,2.9-.8,1.3-1.2,2,.6.6-1.3-.2-2.8.3-1.2,1.4.5.4,2.8h.2ZM257,500.1l-.4,1.5-2-2.5,1-.5,1.4,1.6h0ZM346,441.7l1.7,1.4h1.5l2.1-.6,1.9.3h1.5c.5.6,3.7,4.5,3.7,4.5l1.9-.7,1.5.4.3,1h2.2c0,.1,3.1-.6,3.1-.6l2.1,1.5,5,.8,1.8.6v1.4c.1,0-3.7,4-3.7,4l-1.6,6.1-1,2.3v1.5c-.1,0,0,2,0,2l-.6,2.4v1.3l1.3,1.6-2.2,1-.8,1.5-2.8.3-.8-.8h-1.2l-1.9,1.5,1.4,1.2-.6.9-4,4.2-2.2.9-.5,3-3.1,2.3-1.2,3,.8.7-.3,1.6-1.6,1v1h1.5c0,.1,2.4-1.6,2.4-1.6l-.5-1.4,2.4-1.6h2c0-.1,2.3.2,2.3.2l.8,2.3-.5,1.8,2.4,2.4.9,1.5-2.7,1.8v1.7c.1,0,1,.6,1,.6l1.8,2.7,1.9,1.7-.8,2.6-1.3.3-1.8,1.4-2-.2-.8.4,1.6,3.3,3.4,1.5.5,1.8-.8.7-1.5,2.6.7,1.4v1.5c.1,0,1,.9,1,.9l5.3,2.5,3.5-.6.3,2.1-2.2,2.7.2,1.6-.6.3-.8.3-2.5,1.2-4.1,3.6-1.9,1-.7,1.9-2.1,1.5-2.5.5-2.4,1-1.2-.4h-2.9l-1.8-1.3-3.6-.8-1.2-1.9h-2.6l-.8-1.7-2,.3-1.6.7h-2.1l-6.2-2-1.5-1.5-1.8.5-1.7,1.7-6.8,4.3-2.7,4.5v1.3c-.1,0,.6,4.1.6,4.1l1.3,2-2.7-.4-4,1.2-1.3.8-4.9-1.3-2.2,1.2-1.4-1.3-2.9-1.3v-1.6l-2.7-.6-.9.7-1.2-1.5-1.8-.3-2.6-1-4.2-1.2-.8,2.5h-4.9l-.7-.4-3.3.4-3.4-2.2-3.8.4-2.3-2.2-2.3-.2-4.8-1.5-1.9.4.3-3.4-4.5-1.4-.5-1.4,2.1-.5,2-2,1.8-7.4,1.4-8.7,1-1.7,1.3-.4-1-1.3-1.2,1.6.7-8,.5-2.9.9-3.1,3.3,2.5.8,1,.9,3.6h.6l-1.2-4.7-1.9-2.4-3.8-2.4-.5-1.4,1.9-.6-.5-1.9-.5-6.2-3.1-.6-5-2.7-1.8-2.7-1.7-2-.4-1.8.9-1.9-.8-1.2-1.5-.8,1.2-1.7-3.1-.2-1.9-.5-.3-1.2,1.4-1.5-1.7-.8-2.7.2-.2-1.8-2.3.3-1.3-.3-1.2-1.2-1.4.2-2.3-.4-.8-.7-5-1.4h-2.1c0-.1-2,.5-2,.5l-1.2-.3-1.4-2.3-3.3-1.2.6-.7,3.3-.6.6-.7-2.3-.9-.2-1.3,1.7.3v-1.3c.1,0-4.1.1-4.1.1l-.4-1.4.5-1.5,2.4-1.3,6.1-1.5,2.6.2,1.8-.2,3.1-1.7,3-.4,2.8.8,2.6,2.9,1.3,1,3.3-1.8h4.6c0,.1.9,1,.9,1l1.3-1.8,1,1,4.9-.2-1.6-2.6-.2-6.3-1.4-1.8-2.2-4.5.2-1.5,3.4.3,2.8-.6,1.4.4.3,2.9,1.2,1.7h2.3l2.4.5h3.1c0,.1,4.5.9,4.5.9l1.9-.5,3.7-2.1-1.9-.7-.2-.7.9-2.3,5.5-2.6,3.9-.7,4-1.4,2.1-1.5,1.3-1.9.5-1.4.3-7.1,1-2.3,3-1.7,6.7-1.2.9-.5.9,2.3v1.3l3,2.5,3.4-1,1.7,1.9.5,2.1,4.4,1.2.6,2.1.9-.3,3.8.4,1.7,1.2-.4,1.7.7.7-.7,1.5.5.6,2.4.3,2.3-.3,1.4-.6.5-1.5,2-.6-.8,2.8.6.6.4,2.1h1.8c0,.1,3.5,1.7,3.5,1.7l2.9,2.7,3.6-.4h0l.8.6h0Z"/>
  <path id="cyprus" class="cls-1" d="M735.4,677.8h-.2.2ZM735.4,677.8h.3-.3ZM735,677.5h0ZM738.7,676.7h.2l.3.4.2.4v.3l.3.2h.2-.8l-.2-.3h-.9l-.6.2h0v.2h-.7l.2-.2h0v-.3h-.5v-.5h0l-.3-.2v-.2h0l.2-.2h0v.2h.2v-.2h0v-.2l.2.2h1.4l.7.2h-.1ZM734.5,677.8v.2h-.3l-.3.4v1.5h0v.4h-.8v.4h-.4l-.4.2-.4.2h-.3l-.2-.2v.5l-.3.2-.9.2h-.2v.2h-2.4l-.2.2-.6.5v.3h-.7v.2h0v-.5h.5v-.4h-.5l-.2.2h-.6l-.3-.2h0v-.3h-.5v.2h-.2v.2h-.6v.3h-1.4l-.5-.3-.7-.4h-.3l-.3-.2h-.8l-.2-.3-.6-.4h0v-.5h0v-.2l-.4-.9h0l-.3-.3h-.2v-.8l-.2-.4v-.8l-.4-.5-.2-.3v-.7h.4l.4.6h.3l.2.2h.6l.4-.2.3-.4.3-.4v-.5l.2-.3h.2v-.2h.3l.2.3h.3l.2-.2v-.4h.4l.2.5v.2l.2.2h.2l.4.2h.3l.2.3h.2v.5h0v.2h.5v-.5h.2v.2h.6l.2-.3.2-.2h.2l.3-.3v-.2h1.5v-.2l.4-.2h.4v.2h.3l.2.2.2.2h.2l.3.2h.2v-.4l.4-.3h.9v.4h.2l.2.2.2.2h0v1.9h.4v-.7h0v-.2h0v.4l.2.2h.3v-.2h.4l.3.2h.3l.3.2h0l.8.7v-.2h0Z"/>
  <path id="russia" class="cls-1" d="M819.8,146.5c-.8.2-1.5.5-2.1.8-.7.4-1.3.7-2.1,1.4-2.7,2-2.4,1.9-2.8,2.2-.5.3-1.6.8-3.7,1.8-1.8.8-2.6,1.2-3.3,1.4-1.9.7-2,.5-3.7,1.2-2.1.8-2.2,1.2-3.3,1.3-1.8.1-3.1-.8-3.3-.7,0,.2,3.8,2.4,3.6,3,0,.2-.9.2-2.7,0-1.4-.1-1.9-.2-2.6,0-.2,0-.2.1-1.3.7l-2,1c-1.6.4-3.1-.8-3.3-.5,0,.2,1.4.8,1.7,2.1.2,1-.6,1.5-.7,3,0,1.4.6,1.5.5,3.1,0,.6,0,1.7-.7,2.3-.3.3-.6.5-2.2.7-1.9.2-3.5.2-4.3.2-2.1,0-1.8-.1-2.9-.1-2.1,0-2.3.5-4,.4-1.7,0-2.9-.4-3.5-.5-.2,0-1.3-.4-2.5-1.3-.8-.6-1-.8-2.8-2.3-.8-.6-1.4-1-1.6-1.2-1.3-.5-1.7,0-3.1-.3-.4-.1-1.7-.5-2.2-1.6,0-.2-.3-.7-.2-1.4s.5-.8,1.7-2c1-1,1-1.4,1.7-1.6.3-.1.5-.1,1.5-.2,3-.2,0,0,2.5-.2,2.5-.1,3.7-.2,3.8-.2,2.3,0,2.9.2,3.9-.3.3-.1,1.3-.6,1.3-1.4s-.8-1.3-2.1-2.1c-.9-.6-1-.5-2-1.2-1.2-.7-1.4-1.2-2.3-1.9-.8-.6-1.2-.7-3.1-1.7-3.7-2-3.6-2.3-4.8-2.5-.9-.2-.6,0-3.9.1h-3.7c-1.6.1-1.7.3-3.7.4-.9,0-1.9.1-3.1.1-1.8,0-3-.4-3.5-.4-2.8-.7-3.5-1.7-5.2-1.4-.9.1-2.1.6-2.1,1.2s1.3.9,2.7,1.5c2.2.7,3.4.7,5.6,1.6,1.7.6,2.1,1,2.3,1.5.3.7,0,1.2,0,2.5s.7,1.6.9,3.3c0,1.5-.3,2.7-.5,3.5-.5,1.5-1,1.5-1.3,2.5-.3,1.2-.2,3.1.9,4.2,1.4,1.3,2.9-.3,6.1.9.8.3,2,.7,2.6,2,.5.8.5,1.7.5,2.5s0,1.7-.3,2.4c-.4.8-.9.7-1.3,1.4-.3.7-.2,1.4,0,2.7.2.9.8,4.1.4,4.3-.2,0-.4-.5-1.3-1.3-.4-.3-.8-.5-1-.7-1.2-.6-2.3-.8-3.1-.9-.2-.2-.7-.8-.9-1-.5-.5-.9-.8-1.3-1s-.7-.5-1.2-.7c-.8-.4-1.4-.2-2.9-.2s-1.3,0-2.4-.2c-1.6-.2-1.5-.2-2.5-.3-1.7-.2-1.6,0-3.4-.1-1.7-.1-2.1-.3-2.7,0-.2.1-.3.2-1.3,1.3-1.7,1.9-2,2.2-2,2.2-1,1.3-1.6,1.8-1.6,1.9-1.2.9-2.1.8-3.9,1.4-2.3.6-4,1.6-4.7,2.1-2.5,1.6-2,2.1-4.3,3.3-1.7.8-2.7.9-3.9,2.2-.9,1-1,1.8-1,2.1,0,1,.5,1.9.7,2.2.9,1.3,2,1,4.7,2.5,2.1,1,2.6,1.8,2.9,2.1.3.4,1.4,1.8.9,2.9-.3.9-1.7,1.3-4.2,1.9-1.8.4-3,.7-4.7.3-.6-.1-.5-.2-2.5-.8s-1.9-.5-2.9-.8c-1-.2-1.9-.4-3-.4s-1.8,0-2.4.1c-1.4.4-1.6,1.4-2.6,1.5-.9,0-1.9-.5-1.9-.8s.8,0,1.7-.4,1.4-1.2,1.3-1.4-.8.2-2.4.2-1.3,0-2-.2c-.5-.2-1-.5-1.4-.7-.2-.1-.2-.2-1.2-.8-.6-.4-.8-.6-1.2-.8-.7-.5-1.2-.8-1.5-.9-.5-.2-.6-.2-1.8-.3-.6,0-1-.2-2.1-.4-1.8-.4-2-.5-2.5-.4-.8.2-1.3.6-1.5.8-.6.5-.5.8-1.2,1.7-.3.3-.8,1-1.6,1.4s-1.7,0-2,.4c-.4.7,1.2,3,3.5,4.4,1.7.9,2.2.4,3.6,1.5,1.4,1,1.4,1.9,2.5,2.2.6.2.8,0,3-.2,1.3-.1,2.1-.2,3.1-.1,1.4,0,2.2.1,3,.7,1.3.8,1.7,2.3,2,3.3.2.7.5,2,0,2.4-.4.3-.8-.1-2,0-.5,0-.5.2-2.1.8-1,.4-1.6.6-2,.7-.8,0-.9-.2-2.5-.4-1-.2-1,0-2.6-.3-.4,0-1.2-.1-2.5-.4-2.8-.5-3-.5-3.5-.8-.8-.5-.6-.9-1.9-2-.8-.7-1.5-1-2.5-1.6s-1.7-.8-2.6-1.2c-1.3-.3-2.3-.3-2.9-.3-1.5,0-1.6.2-2.7.1-.8,0-1.5-.3-2.2-.5-.9-.3-.9-.4-2.3-1-1.6-.7-2.1-.7-2.2-1.2-.2-.6.6-.9.4-1.7,0-.5-.5-.5-1.2-1.4-.5-.6-.7-1.3-.8-1.6-.3-.9,0-1-.3-1.9-.3-1-1-1.8-1.5-2.1-.5-.4-.6-.4-2.2-1.4-1.5-.9-1.6-1.2-1.6-1.4,0-.4.3-.6,1.3-1.7s1.6-1.8,1.9-2.9c0-.3.3-1.2,0-2-.2-.7-.7-1.2-2.4-2.3-1.6-1-2.4-1.7-3.6-2.3-1.6-.9-2.4-1.4-3.4-1.6-1-.3-1.9-.3-3.8-.3s-3.6,0-3.6-.2.9-.3,1.3-1c.2-.5,0-1.2-.3-1.5-.4-.4-1-.3-2.3-.2-2.1.1-3.6,0-3.6-.1,0,0,.6,0,1.3-.1.8-.2,1.5-.8,1.9-1.3,0,0-1.3-.6-2.5-1-1.3-.3-1.2,0-2.4-.4-.6-.2-.4-.2-2.4-1-1-.4-1.4-.5-2-.9-.7-.4-1.2-.8-1.3-1-2-1.9-6.1-2.3-6-2.7,0-.3,2.6-.8,4.2.3.6.5.8,1.2,1.5,1.2s.7-.5,1.4-.6c.6-.2,1.2,0,2.3.8,1.8,1,2.3,1.7,3.8,2.6,1.6,1,2.1,1.2,2.6,1.2.8,0,1-.3,2-.4,1-.1,1.4.2,3,.5,2.4.5,2.5,0,4,.7,1.2.4,1.2.7,2.5,1.3.7.2,1.6.5,2.5.5,1.4,0,1.7-.4,2.8-.5,1.3-.1,2,.2,3.8.9,0,0,2.6,1,5.2,1.9,2.1.6,2.4.3,7.9.9,2.9.3,5.1.5,8,1,4.2.7,4.4,1.2,7.3,1.5,2.5.2,4.4.1,6.7,0,2.9-.2,5.5-.5,7-.8,2.8-.5,5.9-1,9.6-2.5,2.8-1.2,4.8-2.3,6.2-3.3,2.5-1.7,3.6-2.8,4.2-3.6.8-1,1.3-1.8,2-3.4.6-1.3.8-2,.5-2.6,0-.1-.2-.7-.8-1.2-.5-.4-.8-.2-1.5-.4-1-.3-1.8-1.2-2.2-1.9-.3-.6,0-.6-.5-2.4-.2-.8-.3-1.3-.5-1.5-.4-.5-.8-.5-2-1.2-1.3-.6-.9-.8-1.7-1.2-.9-.4-1.2,0-3.1-.4-1.2-.2-1.6-.4-1.9-.5-.4-.2-.8-.5-1.3-.9-.6-.5-.7-.7-1.2-1-.6-.4-1-.6-1.9-.9-2-.7-3.7-1.5-3.7-1.4,0,0,.5.3.6.8v.4c-.2.4-1.2.3-1.5.2-.8-.1-1.2-.3-2.1-.6-1-.3-1.2,0-2.2-.3-1.2-.3-1-.5-2.3-.9-1.8-.6-2.2-.2-3-.8-.7-.5-.8-1.3-1.4-1.3s-.6.3-1.2.4c-.8.2-1.7-.3-2.3-.7-1.3-.7-2.5-1.3-3.8-2-1.9-1-3.5-1.6-6.5-2.5-1.5-.4-2.7-.8-3.5-1-1.9-.5-2-.5-3.5-.9s-2.7-.8-4.2-1.4c-2-.7-1.9-.7-2.9-1-1.9-.6-2-.4-3.4-.9-1.3-.5-1.6-.8-2.5-.9-.7,0-1.2,0-2.1.1-.4,0-1.6,0-3.9.2-3.3.2-3.7,0-4.2,0-.7-.2-1-.3-2.2-.5-.8-.2-1.2-.2-2.1-.3-.8-.2-1.6-.3-2.1-.4l-.9-1.2s-.7,0-1.3.1c-.4.2-.5.4-.9.8-.3.3-.8.6-1.7.8-1.2-.2-1.3-.2-1.3-.2-.8-.2-.9-.6-1.3-.5-.2,0-.4.3-.4,1.3,0,0,.2.8,0,1.2-.2.2-.8,0-1.2-.2-.5-.5-.3-1.4-.3-1.5,0-.6.5-.8.4-1.2,0-.5-1.2-.6-1.4-.7-1-.1-1.4.3-2.4.3s-1-.2-1.9-.4c-1.5-.4-2.2,0-3.6,0-2.9,0-5.2-1.6-5.2-1.8,0,0,.6.2,1.9.3.9.1,1.2,0,2.7.1,2.1,0,2.4.2,3.3,0,.6-.2,1.5-.4,1.8-1.2.2-.6-.2-1.4-.7-1.8-.5-.3-.8-.1-1.9,0-1.5,0-2.6-.3-3.7-.5-.9-.3-1.8-.6-2.2-.8-1-.4-1.3-.6-2.1-.9-1-.3-1.7-.5-2.3-.3-.4.1-.7.5-1.4,1.3-.9,1-.8,1.4-1.5,2,0,0-.8.8-2,1-1.4.3-2.4-.4-3.8-.9-1.2-.4.3-.8-2.1-.7l-2,1.8-.3,1.6h-2.5l-4.8-1.5-.4,2.4-1.2.9-6.1,1.4-3,3.6.4,1.3-3.9,1.4,1.7.8.8,1.3-2.1,3.4v.6l3.4,4.2,7.6,1.8,2.4,1.9,3.8,2.4,1.9.9v2l-3,3.1-2.7,3.3-1.3,1.8.4,1.8,2.4,2,2.7,2.5,3.1,3.7,3.1,2.6,3.1,4.4.4,1.5-3.9.7,1.3.9-.6,1.4.3,2-.5,1.6,2,.3.3,1.4-1.8,1v.9l1.5,1.8,1,.6,3.4.6.9,1.7-1,1.8,1.9,2.3,4.7,1.9.7,1.4.2,1.8-2.5,3.1-2.1.8.7.8,4.7,2.7,1.9.8,4.2,1.8,3.5,1.8,1.8,1.7,2.7,2,.5,1-1.6,4.5-.8,1.5-2.3,2.3-3.3,2.7-1.4,1.4-1.7,1.7-2.7,2.9-2.4,2.4-1.7,1.7-2.6,2.6-5.1,3.5-.7.8-2.6,1.6-5.5,5.2,5.8-.9,1.6-.9,1.9-1.6,1.5.3v2.1h-1.9l1.5,2.2,3.3,1.8,3.3,1.6,1.6.5h2.9c0,.1,2.6-.5,2.6-.5l1.5.7,2.4.9,2.2,2.4-2.4-.4-2.9-.7-2.3-.4-2.1-.2-1.5.4-1,1.2-.9,1.5h-5.6l-.7.9-1.2,1.3-1-.4-1.5-.7-2-.3v4.3l1.7,1.3-.7,1.6-1.3.4-.9,3.4-.8,1-1.8-.3-2.6.2-2.1.5-1.4,1.2v1.2l2.8,2.4,1.5,2.9,2.7,2.3.8,1.4,2.6,3.2,1.8,2.4-2.4.6-1.3,2.1-.2,2.1,2.1.3.5,1.2,3.5,1.8.6,2.3-.8,1.7-.7,3.2,1.9-.3,1,.6.3,1.3,1.8,2.2,1.4.8,2,4.4-.2,1.4,1.7,1.2,1.5-.3h1.8c0-.2,3.3,2.1,3.3,2.1l1.7-.9,1.6-.3,3.8,1.3.2,2.4,1.8,1.6,2.2-1.4,2.8-1.2h3.6l2.8.9,2.5,1.9,3.7,1.5.4,2.6-.6,1.9,2.2,2.2.5,1.4-1.4,2.1v2.1l4.3,2.1.5.5-.5,1.9,1.5.6,1.9,2.5,1.6,1.5,5.1,2.2.7.8-.4,2.9,5.6.5,3.4,1.4v1.2l.7,1.2,2.9,1.5.6,1.8-2.7,1-.3.9-3.1,1.9-3.7-.2-2.5-1.6h-3l-1.5,2.9,4.1,3.5.6,1-.2,1.6,1,1.6.5,3.5,1.7,1.5,1.4,1.9,2.7.8h1.8l1.9-1,.5-2.5,1.7-.6,3.9.9h1l2.8-1.4,1.7-.2,2.1.3,3.6-.2,2.7,1.6,1.5,1.6,1.6,2.6,4.2,3.1v1l-3.1.5,1.4,2,.5,2.1,1.3,1.8-.4,1h3.3l3,1.2,4.3-.5,1.6,2.3,2,.2.2.9,1.6,3,.8,1.1v2l.3.9,2,1.7.7,1,1.2.4,2.4-1.5,2.9.4,2.8,2.1h2.4l1.8,1.2,1.5-1.4,4.5-.9,2.4-1h1c0,.1,2.4,2,2.4,2l.5,1.3,1.6,1.7,4.9,3,1.4-.6.9-1.6,2.7,1.5,2.6.3,3.7,1.9h1.6l1.6-.5,2.1,1.9,2,.2,4.6,2.4,3-.3,1,.8v1.8l.9.9v2.7l-1.9,2.2-2.4.8,1.2,1.6,3.3.9-.9.9-1.5-.2-.8,1-.3,2.4,2.6.7,1.3,2.9v1.2l1.3.3-1.4,5.1v1.7l-4.5.2-6.4-.3-.8.2-.9,2-2.4,1.5-1.8.2-.8.8v2.4l-.4,1.4,1.2.7-.7,1.7c.2.4.4,1.2.5,1.4h0l.5-.2s.5-.2,1-.3h1.9c.9,0,1,0,1.9-.1,1.4-.2,1.5-.2,1.5-.2.8-.2.9-.4,2.4-1,1.2-.5,1.7-.5,1.9-.5.5,0,1.3-.1,1.9.3.4.4.5.8.5,1v1.2c0,.3-.3.4-1,.8-.8.5-1.3.7-1.4.8-.7.3-.8.3-2.2.8-1,.4-1.5.5-1.8.7-.3,0-.2.1-1,.3l-.7.2c-.8.1-1,0-1.3.1-.4.3,0,1.3,0,1.4,0,0,.4.7.5,1h0c0,.1-.7.5-1.4.5s-.6-.1-1.5-.2h-2c-.4,0-.7.1-1.2.2-.7.2-1,.4-1.6.4h-.7c-.2,0-.4.2-.5.3,0,.3.2.9.5,1.9s.5.5.9.8c1.2.7,1.4.8,1.9,1.1l1.8.9c.3.1.7.3,1.3.5.4.2.5.3,1,.7,1.4.9,1.2.7,2,1.3s.8.8,1,1.1c.3.4.7.9.6,1,0,.1-.8-.4-2.3-1-.8-.3-1.2-.5-1.5-.3-.8.3-.6,1.9-1.2,2-.5,0-.8-1-1.4-.9-.2,0-.4.4-.7,1.2-.4,1-.2,1.2-.5,1.9-.4.9-.7.9-.8,1.5l-.3,1.2c0,.2-.6.5-1,.9-.2.3-.5.7-.7,1-.2.4,0,1,0,1.2.3.6.8.5,1.4,1.2,0,.1.3.4.6.9h0c.2.3,0,1-.4,1.3-.3.2-.4,0-1.3,0,0,0-.5,0-1.4.1-.3,0-.8,0-1.5.1,0,0-1.4,0-1.4.1,0,0-1,0-1-.1s-1-.3-1.7-.9c-.3-.3-.5-.5-.9-.7-.3-.1-.8-.2-1.4-.1h0c-.7.1-1,.2-1.2.3-.3.3,0,.9,0,1.4.2.3.5.5.9.8.7.4,1.2.5,1.2.6,0,.2-.4.2-1.4.6-.9.3-1.2.5-1.3.7-.2.3-.4.8-.2,1.2.2.3.8.2,2,.3.3,0,.7,0,1.5.3.9.2,1.8.5,2.4.7h0s.9.4,2.1,1.3c.2,0,.4.4,1,.9.5.5.8.7,1.6,1.5s1.2,1,1.4,1.2c.4.2,1,.4,1.3.4h1.1c.7,0,1.1.2,1.2.2.6,0,.5-.9,1-1h0c.5,0,1,.7,1.5,1.2.6.8,1.5,1.5,1.9,1.9,1.3,1.2,1,1.4,1.9,1.9.4.2.3,0,1.5.7,1.3.6,1.5.8,2.2,1s.7,0,1.6.3c.7.2.8.3,2.5,1,1.5.6,1.6.6,2.4,1s1.5.8,1.6.9c.4.3,1.2.7,2,1.5s.6.7,1.4,1.4c.4.4.7.6,1.3,1,1.3.9,1.3.8,1.9,1.4s.4.6,1.4,1.5c.3.3.7.7,1.3,1.2.3.2.6.5,1.3.9.7.5,1,.7,1.4.9.5.3.9.5,1.5.7s1.2.7,1.7.7l.5-.5c0-.5.3-1,.6-1.5.3-.2-.6,0,.9-.2l2.7.5c.7,0,2,.4,2.3.4l1.5-.4s.9.4,1,.4c.5.2,4.9,2.1,5.3,2.2.2,0,5.2,1.6,5.6,1.8v-1.7l.6-394h.6,0ZM756.2,512.2c.2,0,.8.3.9.3,0,0-.4,0-.9-.3Z"/>
  <path id="luxembourg" class="cls-1" d="M349.2,431.7l1,2.5,1.6,1.7,2.9,1.2v1.5l-.9.9-.6,3.3-1.9-.3-2.1.6h-1.5l-2.5-2,1.2-1.7-2.1-2.6.2-1.8,1.5-2.6,1.4-1.4,1.8.7h0Z"/>
</svg>